<?xml version="1.0" encoding="UTF-8"?>
<!DOCTYPE svg PUBLIC "-//W3C//DTD SVG 1.1//EN" "http://www.w3.org/Graphics/SVG/1.1/DTD/svg11.dtd">
<!-- Creator: CorelDRAW -->
<svg xmlns="http://www.w3.org/2000/svg" xml:space="preserve" width="297mm" height="210mm" version="1.1" style="shape-rendering:geometricPrecision; text-rendering:geometricPrecision; image-rendering:optimizeQuality; fill-rule:evenodd; clip-rule:evenodd"
viewBox="0 0 29700 21000"
 xmlns:xlink="http://www.w3.org/1999/xlink"
 xmlns:xodm="http://www.corel.com/coreldraw/odm/2003">
 <defs>
  <style type="text/css">
   <![CDATA[
    .fil10 {fill:#ABACB1}
    .fil6 {fill:#9C9DA1}
    .fil4 {fill:#68686A}
    .fil9 {fill:#C9C9CC}
    .fil2 {fill:#828285}
    .fil1 {fill:black}
    .fil7 {fill:#9B120B}
    .fil3 {fill:#590000}
    .fil8 {fill:#850F0A}
    .fil5 {fill:#6A070F}
    .fil0 {fill:url(#id0)}
   ]]>
  </style>
  <linearGradient id="id0" gradientUnits="userSpaceOnUse" x1="14822.96" y1="11951.65" x2="14804.01" y2="13829.06">
   <stop offset="0" style="stop-opacity:1; stop-color:#9B120B"/>
   <stop offset="1" style="stop-opacity:1; stop-color:#590000"/>
  </linearGradient>
 </defs>
 <g id="Camada_x0020_1">
  <metadata id="CorelCorpID_0Corel-Layer"/>
  <path class="fil0" d="M20723.51 13327.94l-174.46 -2.56c-8.35,491.5 131.31,427.8 -292.71,420.59 -253.76,-4.31 -507.52,-8.62 -761.28,-12.93 -263.42,-4.48 -477.17,7.79 -729.82,3.49l-3774.94 -48.23c-257.29,-4.38 -465.99,7.98 -729.83,3.49 -1765.69,-30 -3521.97,-28.04 -5281.89,-57.94l16.95 -997.78 -95.16 -1.62c-1.55,91.18 14.12,141.68 11.7,250.93l-14.42 842.49c258.63,4.39 463.16,-8.03 713.97,-3.77l1490.84 25.33c263.84,4.48 472.53,-7.87 729.82,-3.5 1987.12,33.76 3946.15,35.25 5932.16,68.99 263.57,4.48 470.65,-7.9 729.83,-3.5l1490.83 25.33c262.97,4.47 469.06,-7.92 729.83,-3.49l8.58 -505.32zm-11823.14 -693.49l95.16 1.62c3.43,-202.09 -9.5,-374.99 -5.81,-591.9 940.64,15.98 1949.97,1.33 2887.05,17.25 980.91,16.67 1917.82,11.71 2902.74,33.53 134.01,2.97 208.85,-12.79 349.07,-10.09 1571.48,30.28 3138.42,21.54 4710.96,48.26 258.1,4.38 459.24,-8.1 713.97,-3.77 -2.77,163.09 11.39,263.28 8.67,423.32l158.61 1.91 8.53 -501.73c-1001.34,-17.02 -1952.07,-17.27 -2950.22,-34.23 -262.97,-4.47 -469.07,7.93 -729.83,3.5 -1481.86,-25.18 -2961.19,-18.52 -4441.32,-43.67 -263.43,-4.47 -477.17,7.8 -729.83,3.5 -1005.09,-17.08 -1960.31,-17.41 -2966.08,-34.49l-11.67 686.99zm2667.71 -145.82l-5.57 328.08 1126.1 16.69 5.79 -340.87 -348.95 -4.15 -95.01 -8.25 -4.38 255.31 -253.75 -4.31 4.32 -254.31 -78.49 -1.33 -350.06 13.14zm-9.98 587.5l348.92 5.93 1.39 -82.08 79.3 1.35 -4.05 238.41 269.62 4.59 4.32 -254.31 79.3 1.35 -1.63 95.86 349.12 -5.68 4.22 -248.15 -1126.1 -16.69 -4.41 259.42zm2589.86 -232.08l1126.31 4.32 5.58 -328.48 -348.93 -5.1 -79.2 -6.11 -4.36 255.06 -253.76 -4.31 4.33 -254.31 -95.26 4.02 -348.95 -4.09 -5.76 339zm0 0l-4.37 257.29 348.91 6.64c0.93,-54.88 -8.21,-96.49 49.21,-95.52 57.43,0.98 46.88,42.25 45.95,97.14l253.96 -7.88 1.42 -83.67 79.3 1.35 -1.44 85.2 364.82 3.43c1.9,-111.67 -13.06,-164.76 -11.45,-259.66l-1126.31 -4.32zm4627.46 293.3l348.93 5.14 1.42 -83.47 428.22 7.27 4.59 -270.2c-159.01,-2.7 -263.04,11.43 -428.49,8.62l1.14 -67.16 -364.78 -6.2c-1.16,68.66 14.75,90.62 13.38,178.13 -1.18,75.89 -3.12,151.94 -4.41,227.87zm-8450.24 -326.68l428.25 5.07c75.27,11.69 86.78,-8.79 174.64,-7.3l5.58 -328.15 -348.93 -5.92 -2.87 169.2 -79.3 -1.34 2.88 -169.21 -348.92 -5.79 -5.85 343.9 174.52 -0.46zm-337.48 254.68l-348.91 -6.29c0.44,68.17 14.62,72.95 13.19,156.97l-95.16 -1.62 2.65 -155.68 -333.06 -5.66 -5.62 330.52 761.28 12.93 5.63 -331.17zm5815.55 -537.88l-348.94 -4.61 -5.58 328.08 777.36 0.37 5.58 -328.7 -341.12 4.48 -12.84 238.25 -78.48 -1.32 4.02 -236.55zm597.14 336.12l698.05 -0.9c-8.07,-34.14 -11.78,-34.83 -14.55,-76.85l95.16 1.62 4.27 -251.79 -364.82 -3.45c29.22,51.39 12.94,171.9 11.63,249.31l-79.3 -1.35 4.23 -249.4 -348.93 -4.69 -5.74 337.5zm-3537.12 -39.29l682.01 9.75 1.3 -76.51 79.3 1.35 4.27 -251.13 -348.93 -5.62 -4.26 250.82c-75.66,-2.98 -77.92,-1.77 -80,-78.87 -1.37,-51.11 4.04,-118.94 4.95,-172.5l-348.89 -7.41c-0.98,57.36 -1.6,114.83 -3.08,172.17 -0.62,24.09 -2.96,57.72 -2.37,80.55 0.44,17.03 0.37,26.44 3.57,43.14 6.84,35.76 -0.08,15.14 12.13,34.26zm-3632.46 -30.07l682.03 8.44 1.27 -75.05 79.3 1.35 4.27 -250.82 -348.93 -5.71 -4.25 250.6c-75.67,-2.98 -77.92,-1.77 -80,-78.87 -1.39,-51.45 4.05,-119.69 4.96,-173.6l-348.91 -6.31c-2.26,133.2 12.47,199.57 10.26,329.97zm9538.77 -247.22l348.92 6.31 444.13 4.16 4.59 -270c-278.78,-4.74 -508.56,7.26 -793.27,2.42l-4.37 257.11zm-1244.88 -8.05l435.96 -1.55 174.57 -4.87c1.87,-109.18 -13.12,-160.62 -11.53,-253.69l-587.36 -10.52c-91.83,-1.44 -110.68,14.56 -190.05,13.21l-4.32 254.31 182.73 3.11zm-2070.39 -16.1l348.94 4.61 87.3 -0.38 341.12 -4.48 4.42 -259.93c-132.17,-2.25 -264.34,-4.41 -396.5,-6.74 -150.38,-2.64 -240.46,11.82 -380.91,9.43l-4.37 257.49zm951.82 3.23l348.93 4.69 63.44 1.44 364.82 3.45 4.37 -256.82 -793 -13.47c-1.87,110.26 -4.83,169.62 11.44,260.71zm-3553.11 -31.91l348.89 7.41 79.31 0.55 348.93 5.62 4.37 -257.48 -777.14 -13.21 -4.36 257.11zm-3632.47 -29.92l348.91 6.31 79.29 1.87 348.93 5.71 4.38 -257.79 -777.14 -13.21 -4.37 257.11zm6228.18 386.68l-4.42 260.3 348.94 5.05 1.39 -82.07 79.3 1.35 -1.39 81.71 348.95 4.18 4.59 -270.15 -777.36 -0.37zm3675.62 291.55l-348.93 -5.14 -5.86 344.88 603.21 10.79c91.83,1.44 110.69,-14.56 190.05,-13.21 -23.67,-51.69 -14.38,-86.91 -13.15,-159.21 -100.75,-1.71 -201.56,-4.25 -302.3,-4.2 -163.2,0.08 -125.78,-11.8 -123.02,-173.91zm-2723.96 -278.9l-4.43 260.83 349.13 -6.46 1.42 -83.47 79.3 1.35 -1.42 83.47 348.93 5.19 4.38 -257.57 -79.26 -4.24 -698.05 0.9zm-7173.98 189.48l333.06 5.66 1.4 -82.73 79.3 1.34 -1.38 81.72 348.91 6.29 4.36 -256.91 -79.22 -5.77 -682.03 -8.44 -4.4 258.84zm3632.45 30.86l333.07 4.72 1.41 -82.73 95.16 1.62 -1.4 82.5 333.05 5.88 4.38 -257.56 -79.25 -4.31 -682.01 -9.75 -4.41 259.63zm7201.25 73.07l-333.05 -5.95 -5.64 331.45 666.12 11.32 2.97 -174.83 -333.06 -5.66 2.66 -156.33zm-9739.3 -88.82c-2.08,122.01 -11.29,234.24 10.18,334.27l428.22 7.28c2.36,-139.05 -12.15,-218.78 -9.99,-345.74l-428.41 4.19zm7629.66 68.87l-428.23 -6.62 -5.62 330.51 428.22 7.28 5.63 -331.17zm-777.15 -12.55l-348.93 -5.19 -5.87 345.67 348.91 5.93 5.89 -346.41zm-1887.6 -16.47l-364.82 -3.43c39.51,68.02 11.67,246.52 10.01,344.21 423.12,7.19 347.62,82.15 354.81,-340.78zm-2093.79 -19.38l-333.07 -4.72 -5.87 345.47 349.19 -9.96c1.66,-97.73 25.97,-261.27 -10.25,-330.79zm3204.03 35.77l-5.66 333.29 348.91 5.92 5.88 -345.67 -349.13 6.46zm-4060.69 -37.19l-5.66 333.28 348.92 5.93 5.86 -344.89 -349.12 5.68zm2157.23 20.75l-348.91 -6.64c-2.29,134.65 12.42,202.69 10.18,334.26l348.92 5.93c0.99,-58.16 3.33,-117.51 3.62,-175.46 0.4,-82.48 -13.44,-89.92 -13.81,-158.09zm-872.35 -12.06l-333.05 -5.88 -5.62 330.74 348.92 5.93c1.66,-97.72 25.97,-261.26 -10.25,-330.79zm2601.35 25.54l-348.95 -4.18c-2.27,133.72 12.45,200.72 10.23,331.8l348.92 5.93c2.04,-120.04 -12.49,-198.9 -10.2,-333.55zm-4314.48 -39.4l-348.92 -5.93 -5.63 331.18 348.92 5.92 5.63 -331.17zm3886.23 34.23l-348.94 -5.05 -5.61 330.3 348.92 5.93 5.63 -331.18zm1728.99 14.14l428.23 6.62 4.42 -260.12 -444.09 -7.01c25.29,60.71 12.89,175.23 11.44,260.51zm1094.39 15.11l-333.05 -5.66c-0.98,57.37 -4.23,118.75 -3.51,175.57 1.02,80.13 15.03,79.85 13.69,158.7l317.2 5.39 5.67 -334zm-8295.82 -77.36l428.41 -4.19 4.21 -248.25 -428.25 -5.07 -4.37 257.51zm7967.17 -187.34c100.47,0.67 236.3,18.16 317.4,-6.67l5.58 -328.51 -317.23 -3.69 -5.75 338.87zm-7201.31 -69.7l317.2 5.39 5.67 -333.78 -317.2 -5.39 -5.67 333.78zm-9.99 588.08l317.2 5.39 5.67 -333.78 -317.2 -5.39 -5.67 333.78zm3077.04 -894.17l348.95 4.09 4.42 -259.94 -348.92 -5.93 -4.45 261.78zm-3569 -30.68l348.93 5.92 4.41 -259.93 -348.92 -5.93 -4.42 259.94zm1760.73 14.01l348.95 4.15 4.38 -258.15 -348.91 -5.93 -4.42 259.93zm2585.47 26.41l348.93 5.1 4.37 -257.48 -348.91 -5.93 -4.39 258.31zm-4774.41 -47.56l348.92 5.79 4.41 -259.93c-58.3,-1 -116.74,-2.61 -174.99,-3.52 -86.91,-1.37 -105.6,13.11 -174.19,13.48l-4.15 244.18zm9564.85 85.24l348.99 1.78c-4.99,-85.63 -13.34,-148.6 -11.48,-258.42l-333.05 -5.66 -4.46 262.3zm5.7 598.58l333.05 5.95 4.45 -261.87 -333.09 -4.13 -4.41 260.05zm-8158.98 -662.42l350.06 -13.14 3.15 -238.42 -348.83 -5.93 -4.38 257.49zm6719.9 392.21l-4.4 259.04 333.05 5.66c1.61,-94.53 -13.19,-157.44 -11.25,-271.37 -81.1,24.83 -216.93,7.34 -317.4,6.67zm5.75 -338.87l317.23 3.69 4.39 -258.45 -317.2 -5.39 -4.42 260.15zm-780.27 171.6l444.07 7.55 3.13 -183.71 -435.96 1.55 -11.24 174.61zm3035.59 611.81l174.46 2.56c2.74,-161.14 -11.33,-266.74 -8.49,-433.98l-158.59 -2.78 -7.38 434.2zm-3038.25 -455.46l444.09 7.01 2.64 -155.81 -444.07 -7.55 -2.66 156.35zm1255.65 -138.57l364.78 6.2c0,-79.29 -14.29,-92.85 -12.73,-184.23l-348.92 -6.31 -3.13 184.34zm951.81 3.78l348.92 5.93 3.17 -186.81 -348.99 -1.78 -3.1 182.66zm13.21 155.87l333.09 4.13 2.62 -154.07 -348.92 -5.93c-0.41,24.34 -3.16,56.83 -2.51,79.79 0.49,17.34 0.28,26.19 3.57,43.09 7.77,39.85 -1.39,13.85 12.15,32.99zm824.96 0.18l158.59 2.78 5.77 -339.38 -158.61 -1.91 -5.75 338.51zm-5968.77 218.42l-2.7 158.44 253.76 4.31 2.9 -170.63 -253.96 7.88zm-3114.68 -625.77l4.81 -4.66c-0.32,0.3 -6.36,3.05 -4.81,4.66zm8996.9 -101.52l4.82 -4.66c-0.32,0.31 -6.37,3.05 -4.82,4.66z"/>
  <g id="_2944787051264">
   <path class="fil1" d="M20081.75 7476.36c-24.5,97.62 -78.41,193.75 -115.91,283.6 -19.54,46.82 -34.88,82.5 -56.63,135.1 -24.31,58.76 -29.93,100.69 -74.82,132.43l-69.88 -556.52c-231.36,-3.93 -436.08,8.46 -682.32,4.28 -220.4,-3.75 -478.49,-30.73 -688.91,-2.53l-4150.02 -16.22c-246.93,-4.2 -436.58,8.45 -682.32,4.27 -232.14,-3.94 -466.73,-11.42 -698.54,-12.49 -97.58,-0.46 -142.58,14.12 -332.75,10.84l-697.94 -11.88c-140.22,-2.7 -215.07,13.03 -349.1,10.06l-2074.93 -16.09c-68.38,6.66 -100.56,-2.38 -114.92,58.65l-56.47 490.36c-51.45,-39.06 -150.25,-320.9 -183.82,-399.57 -21,-49.22 -48.33,-86.05 -60.81,-144.04 -1296.31,-22.03 -2570.54,3.92 -3871.08,-18.17 -2.16,54.84 -117.82,516.05 -136.33,553l-283.44 -2.7c-69.9,15.51 2.31,-4.16 -66.32,44.36 -82.44,-127.74 -280.28,-353.59 -381.42,-489.41 -64.2,-86.23 -56.63,-107.21 -194.68,-108.25l-1174.86 -3.28 -835.53 2815.65c-41.88,135.76 -90.73,273.92 -123.57,404.79 44.05,12.57 238.06,176.92 290.97,218 95.03,73.78 827.19,657.79 868.25,658.48l1237.49 5.16 136.59 -568.87c142.2,2.42 182.36,-18.45 264.59,56.28 60.15,54.66 104.74,112.9 163.74,169.36l164.18 153.34c61.59,64.14 110,98.91 170.79,162.54 42.53,44.52 34.16,42.96 113.91,45.9 51.47,1.9 108.25,1.15 160.5,1.95 109.37,1.67 188.55,-13.37 316.97,-11.03 987.4,17.98 1950.97,12.32 2934.81,34.1 127.82,2.83 189.04,-12.75 317.4,-10.57 2.59,-152.55 36.06,-254.71 38.73,-411.87 37.08,14.14 37.49,26.53 71.23,87.15l191.42 329.84c871.88,14.81 1695.36,12.93 2569.88,27.79 227.24,3.86 402.29,-9.03 634.74,-5.08l2585.74 28.06c232.62,3.96 409.88,-8.9 634.74,-5.07 427.7,7.28 875.92,28.12 1301.17,22.62 97.54,-1.26 179.54,-13.41 301.14,-11.27l2268.5 22.68c14.85,-59.15 208.71,-396.88 261.61,-455.68 -2.83,166.35 42.54,297.4 39.76,460.8l2153.22 16.38c274.57,-32.89 767.1,1.5 1083.13,6.87 378.96,6.44 704.05,-3.9 1078.87,2.47 349.58,5.94 751.24,31.37 1094.54,18.67 435.79,-16.12 664.15,5.86 1080.07,3.7 96.81,-0.5 60.71,1.83 181.65,-86.45 57.13,-41.7 99.85,-76.55 153.68,-115.41l630.3 -461.61c53.5,-42.71 99.87,-74.75 154.65,-114.4l163.02 -121.87 -921.1 -3088.01c-17.55,-63.62 -50.4,-156.53 -54.13,-212.89 -295.25,-5.02 -537.34,6.73 -825.08,1.84 -276.92,-4.7 -573.4,-15.58 -825.91,1 -244.92,16.09 -584.87,-9.03 -839.85,-13.43 -160.42,-2.77 -261.66,12.02 -412.63,8.9l-2098.6 -8.3c-205.16,24.57 -610.02,-6.03 -836.42,-9.88 -280.36,-4.77 -543.91,6.62 -840.94,1.57z"/>
   <path class="fil2" d="M8996.93 8796.08l-13.04 46.64c28.98,24.11 -0.18,12.07 45.03,27.54 4.6,1.58 40,-0.09 47.23,-0.68 1.48,58.06 0.68,36.13 22.65,58.67 3.28,3.37 16.29,12.7 19.55,15.81 74.94,71.24 6.69,-36.64 27.68,32.27 25.71,-62.56 12.1,-21.57 26.61,-38.67l317.22 -0.77 25.88 -297.5c23.92,-118.91 -7.22,-42.65 43.95,-72.41 41.38,-7.16 37.9,31.04 68.33,61.71 2.31,2.33 5.61,5.41 8.01,7.57l104.36 100.05c47.21,52.31 -11.02,64.97 88.77,47.25 19.88,-194.95 51.53,-352.67 57.72,-544.29 -65.98,-17.82 -43.92,-11.15 -87.77,-57.44l-149.22 -151.79c-3.35,-3.08 -18.11,-13.51 -21.13,-15.82l-27.57 -17.8c26.01,-75.73 22.77,-104.75 21.97,-178.32l662.23 -10.93c-16.2,200.03 -46.36,482.05 -81.36,677.06 -38.89,216.7 -90.38,392.66 -82.1,647.74 7.2,221.68 -48.99,455.18 -67.14,667.94l-82.47 644.01c-208.22,-4.23 -462.82,-14.02 -666.65,-0.49 -25.64,-104.71 106.92,-752.56 110.87,-928.62l-348.8 6.79 -84.66 8.73 65.83 -505.62c-128.02,-16.93 -359.82,-24.11 -484.45,-1.05 -27.22,189.73 -75.07,370.88 -96.94,560.3l-59.38 4.51 1.88 -48.41c-23.42,30.69 -139.03,799.02 -148.86,897.62 -124.56,5.86 -219.73,-18.33 -351.55,-4.59 -112.82,11.75 -229.12,5.77 -343.47,3.83l141.75 -728.94c24.96,-130.66 24.29,-228.7 44,-361.38 14.78,-99.55 57.53,-249.79 65.5,-352.49l188.08 -1057.97 28.04 -126.48c106.73,2.61 733.98,14.88 790.34,-5.05l16.08 -128.93 -946.91 -0.88c-57.15,99.12 -202.32,1009.52 -222.28,1196.37 -40.46,378.56 -148.52,834.72 -215.16,1231.68 -17.41,103.67 -30.35,204.79 -47.96,302.42 -27.03,149.94 -47.72,151.09 22.64,250.91l445.64 615.79c69.24,92.95 130.35,77.39 278.01,66.43 204.29,-15.16 489.68,-0.66 702.71,1.43l-411.5 -666.81c-69.52,-106.5 -31.14,-172.87 -8.69,-311.5 34.31,-211.97 157.88,-1164.56 203.89,-1277.59l316.24 -1.72 -73.84 587.64 328.77 3.11c-0.84,210.44 -147.3,842.6 -86.53,968.55l395.78 708.03 935.33 1.35c-46.66,-117.02 -102.39,-234.46 -154.79,-351.41 -47.18,-105.3 -136.79,-274.37 -167.16,-370.27 -21.55,-68.04 294.74,-2573.93 306.71,-2944.07l-953.57 -4.97c-10.65,166.76 -60.61,378.27 -83.91,552.55 -14.2,106.21 -17.04,189.1 -26.5,284.69 -8.72,88.11 -14.85,226.65 -59.03,277.32l-320.89 1.35z"/>
   <path class="fil3" d="M24712 8143.7c177.97,17.35 69.95,21.4 116.04,47.56 12.41,7.05 -12.41,3.9 35.1,11.53 2.16,0.35 50.74,-1.38 52.15,-1.44 22.02,108.68 5.48,53.52 56.91,79.02l42.89 28.19c100.76,92.26 80.15,0.13 147.03,192.94 13.17,37.98 25.03,71.81 31.56,110.48 28.9,171.03 90.61,258.32 35.63,328.54 -120.6,-5.82 -21.81,8.87 -76.66,-46.66 -55.48,-56.16 -33.08,-7.57 -88.46,-56.27 -51.53,-45.31 -10.1,-35.86 -95.73,-45.18l-18.58 -85.45c-142.18,-6.9 -51.47,5.99 -111.4,-38.36l-31.15 -17.97c-51.35,-30.97 -7.58,24.82 -45.9,-31.63 -34.89,-81.44 5.08,-41.33 -101.38,-58.41 -15.78,-79.39 -17.45,-91.98 -94.58,-65.9l48.17 264.01c126.16,397.97 100.6,406.34 176.86,762.85l190.19 758.36c18.37,85.32 31.61,181.92 57.18,255.52l714.28 12.66c-15,-156.18 -114.77,-461.8 -164.21,-625.77 -60.58,-200.9 -106.55,-406.63 -150.66,-615.56l219 13.94c41.35,-15.48 33.89,1.32 44.31,-36.48 18.1,-65.63 -24.94,-43.13 -28.61,-44.87 -18.98,-9.02 -125.53,-19.71 -151.81,-20.4l-18.44 -49.31c-1.56,-3.7 -3.33,-8.01 -5.02,-11.8 -11.43,-25.63 -18.76,-43.91 -34.85,-66.89 -96.15,-16.13 -81.52,-7.16 -99.93,-68.31 -30.12,-51.8 -114.99,-390.82 -125.51,-436.66 -15.91,-69.34 -10.28,-152.82 -28.4,-224.12 -18.44,-72.52 -47.08,-139.01 -63.33,-212.99l668.84 -1.11 230.59 838.05c33.23,113.41 -37.44,105.27 114.49,106.62l22.06 71.64c175.32,3.14 1.7,1.19 168.11,71.2 56.17,23.63 67.51,101.69 80.17,163.64 29.77,145.8 107.45,362.12 104.33,458.73 -201.1,-3.66 6.73,-79.64 -187.76,-85.52l-33.83 -88.64 -81.48 -2.29c64.57,298.82 166.86,561.31 230.17,864.73l623.58 5.54 88.51 -0.03 -71.01 -228.69c-9.34,-95.51 -94.75,-365.81 -128.6,-461.61 -38.11,-107.83 -32.63,-143.14 -52.29,-237.92l-256.72 -905.4c-20.6,-75.51 -65.44,-144.25 -78.75,-209.32 -131.82,-48.74 -51.48,-47.73 -124.45,-70.6 -10.83,-3.4 -43.26,-4.27 -56.72,-5.07 -29.16,-70.37 -7.42,-42.98 -45.19,-59.73 -34.95,-15.51 -3,9.67 -49.74,-16.85 -28.82,-16.36 -5.85,-4.73 -27.98,-23.75l-67.62 -39.17c-36.79,-21.97 -28.29,-23.4 -46.01,-72.32 -160.3,-65.17 -92.32,-55.83 -194.95,-57.57 -19.23,-111.54 -12.82,-54.12 -82.06,-103.74l-16.96 -15.71c-99.49,-85.57 -101.03,-6.59 -105.08,-114.23 -97.45,4.8 -84.01,25.6 -108.27,-54.71 -210.35,-18.55 -422.52,-13.07 -634.52,-16.13 -200.35,-2.89 -402.95,-4.82 -602.86,-3.07 -1.55,75.18 70.82,251.5 73.36,362.45l150.47 -1.79 -29.91 -123.63 78.55 -26.29 16.84 77.12z"/>
   <path class="fil2" d="M17182.35 7695.28l-6.48 66.92 -748.07 -9.46c-281.24,4.15 -183.29,-41.65 -222.72,38.55 25.62,58.34 -2.4,31.14 60.41,47.98l811.4 -2.86c114.72,-4.66 203.1,23.58 294.01,17.72l730.88 -6.29c13.57,104.68 57.94,559.05 46.08,622.6 -2.77,82.58 33.32,155.32 37.56,264.36l59.94 755.05c11.06,101.5 -2.82,171.37 3.68,259.31l76.54 747.94 -695.33 -10.81 -55.11 -836.75 -19.44 -391.07c-109.01,-2.16 -235.18,-17.03 -344.37,3.3 -156.62,29.15 -201.77,3.09 -347.94,2.44 -25.89,238.97 65.9,978.96 65.9,1228.46l-703.54 -13.33 -15.32 -482.13c-3.39,-184.76 -25.35,-348.2 -27.08,-524.76 -0.69,-70.14 11.52,-157.49 13.15,-236.82 3.55,-173.48 -55.95,-682.06 -33.76,-780.58l-11.31 -549.82 5.1 -67.16 -127.22 -75.31c-32.29,-9.43 -22.05,-6.48 -61.97,-7.16l-0.43 139.79c39,444.9 9.29,893.42 42.84,1337.05 32.54,430.19 19.93,879.88 40.12,1317.04 88.55,1.74 137.01,21 234.87,19.54 81.05,-1.2 174.89,-3.58 254.38,-1.8 143.32,3.23 302.87,-19.17 460.02,-17.55 -27.38,-48.45 -4.55,-166.63 -10.92,-266.68 -11.3,-177.57 -49.35,-201.05 82.87,-208.01l-36.04 -667.73 341.05 9.59c44.91,338.58 43.88,715.66 69.59,1061.12 9.39,126.04 31.45,123.85 -9.25,247.24l-194 677.74 947.92 4.42c32.78,-49 297.87,-696.62 305.19,-756.16 14.32,-116.47 -144.4,-1787.32 -157.89,-1961.3 -15.36,-198.17 -27.91,-812.1 -80.3,-976.5 -73.31,-31.63 -939.98,-33.53 -1075.01,-18.12z"/>
   <path class="fil4" d="M4659.58 9352.19l255.31 2.4c-18.82,132.23 -70.21,292.62 -105.72,434.43 -29.04,115.96 -64.42,331.34 -100.9,427.99 -75.98,-19.92 -224.72,-204.2 -276.16,-262.99l41.22 -172.41 -90.75 -1.55c-14.68,37.18 -12.37,23.76 -17.2,78.96l-366.04 -6.27c-46.66,-1.81 -82.22,-4.16 -110.17,14.13 -0.41,-29.92 2.55,-25.38 5.29,-47.98 4.44,-36.63 4.44,-43.64 12.54,-81.12 9.78,-45.18 20.9,-96.68 32.81,-140.42 15.22,-55.9 36.9,-97.58 49.4,-148.62 15.98,-65.33 7.28,-94.79 24.75,-151.01 -24.76,-8.48 -140.56,-4.03 -65.8,-96.31l-47.76 -0.15c-574.6,10.51 -404.7,-69.89 -520.31,315.84 -15.44,51.52 -37.17,96.67 -54.57,144.15 -43.25,117.97 -127.9,522.92 -169.35,688.75 -15.2,60.8 0.62,32.95 -28.83,66.46l-10.94 56.09c-142.74,-0.53 -280.43,7.2 -427.59,5.52 -69.58,-0.79 -371.49,-21.38 -403.58,-16.26l-24.1 42.35c-4.1,10.38 -9.65,34.45 -13.42,48.78l725.57 588.91c227.22,181.27 132.22,160.35 494.72,167.51 180.58,3.56 467.51,14.74 640.78,-4.83 -31.93,-8.63 -163.55,-140.81 -202.43,-175.05 -104.17,-91.72 -568.1,-512.16 -641.13,-550.43l299.66 -1158.44c28.53,-94.41 -6.02,-70.91 348.13,-77.44 1.2,84.01 -65.69,296.88 -91.1,388.94 -62.62,226.82 -68.89,207.32 60.64,328.28 53.54,50 443.04,444.12 490.95,469.13 18.87,-89.17 89.7,-447.19 138.48,-498.33 35,44.37 174.41,168.7 186.08,205.73 24.31,77.1 -76.91,240.33 -50.95,333.04l700.52 711.3c55.82,47.63 71.05,38.36 166.51,40.18 267.35,5.09 535.57,3.31 802.75,5.9 -72.29,-109.14 -370.45,-416.49 -491.72,-554.8 -55.8,-63.65 -111.94,-135.03 -174.99,-187.68l293.03 -1381.21c-149.98,1.08 -75.13,6.81 -93.68,30.56 -26.01,33.33 -247.3,1173.54 -268.67,1249.86 -211.31,41.48 -599.34,-11.72 -829.86,-14.7 17.51,-24.61 91.9,-676.92 186.99,-883.31 43.39,-94.19 67.26,-191.88 81.53,-308.48 -257.72,-6.91 -114.56,-17.1 -350.22,-1.4l-9.72 76z"/>
   <path class="fil4" d="M12665.08 10000.89l3.73 62.68c94.55,30.05 42.29,-7.53 95.88,45.94 28.87,28.81 -43.4,26.93 70.38,29.18 17.68,79.11 4.05,176.79 1.29,258.75l-96.55 -0.17 -7.49 51.45c-307.42,18.47 -769.21,-13.35 -1015.01,-1.07 -161.71,8.08 -361.66,10.37 -523.55,-3.77 -168.82,-14.75 -341.22,0.84 -510,-3.83l88.17 -967.21 -69.43 1.92c-23.49,-29.36 -32.24,34.49 -30.07,-88.55l-56.2 -19.62c-29.67,39.5 -124.52,1077.01 -127.71,1114.81 -11.22,132.66 -6.49,133.93 37.67,241.05 51.78,125.61 232.28,584.35 271.26,634.81l2225.1 19.55c5.95,-105.76 -75.67,-500.92 -98.98,-634.27 -34.36,-196.56 0.58,-502.79 3.2,-734.22l-261.69 -7.43z"/>
   <path class="fil5" d="M22698.73 9429.08c-365.88,-6.6 -8.72,-39.81 -253.63,-65.28 -17.08,-59.81 -41.21,-112.37 -49.09,-177.68 -11.18,-92.62 0.2,-121.61 -88.1,-128.75 -18.75,69.37 10.17,85.89 4.37,164.5 -105.11,5.21 -52.75,3.28 -88.91,-40.61l-148.72 -116.07c-31.61,-19.65 -4.95,18.57 -67.16,-82.47l-75.2 10.07c17.5,129.44 44.03,259.09 63.5,388.44l68.35 388.75c12.15,116.8 45.54,263.39 71.62,372.95l44.41 282.87c12.09,68.01 -3.46,61.34 39.43,93.9 336.25,9.51 732.02,34.89 1062.69,20.9 194.16,-8.21 963.89,9.98 1045.62,-9.14l-124.34 -561.96c-35.17,-168.6 -100.3,-340.83 -125.2,-582.44 -10.83,-105.07 -54.46,-278.13 -101,-369.01 -112.81,-1.95 -223.17,-11.59 -335.82,-17.02 -110.61,-5.34 -210.74,12.68 -324.32,13.09l176.46 893.11c26.58,94.89 38.28,205.05 57.78,307.76 -235.49,-4.7 -473.98,-25.29 -708.52,-1.33l-93.38 -581.29c-14.52,-62.64 -38.27,-126.79 -50.84,-203.29z"/>
   <path class="fil4" d="M15262.3 10480.12c-149.65,-1.19 -310.37,-3.38 -452.65,-4.79 -210.39,-2.08 -740.1,2.86 -918.9,-13.74 -91.32,-8.49 -336.86,31.96 -456.36,-20.16l15.91 -310.12 -13.84 334.36c51.26,1.54 102.1,2.66 153.3,3.7 13.43,0.27 68.67,3.44 78.8,6.94 49.82,17.22 20.87,-8.2 42.74,33.36 -23.66,38.59 6.96,13.15 -40.11,32.02 -60.93,24.43 -339.2,-10.9 -386.6,-23.4l-1.11 -281.83c-2.34,2.93 -4.71,4.45 -5.34,9.89 -12.23,107.32 -24.11,142.72 -20.3,287.66 5.74,218.11 67.18,623.18 99.71,840.24l2243.7 19.5c37.44,-136.34 45.13,-347.27 66.45,-508.35 57.32,-433.05 3.24,-1212.58 2.42,-1706.88l-91.52 -0.26c-2.56,150.65 14.46,219.62 24.48,358.37l-0.31 1015.35c-114.65,-1.95 -234.22,15.52 -346.96,-9.65l6.49 -62.21z"/>
   <path class="fil4" d="M22036.44 10587.73c25.76,119.98 -42.86,159.65 -104.06,239.65 -51.3,67.06 -99.69,130.81 -151.24,198.57 -108.9,143.15 -207.54,262.66 -302.44,404.73 691.63,21.66 1402.24,5.76 2089.62,20.33 174.05,3.7 175.26,16.61 268.31,-73.77l534.26 -528.74c186.07,-179.77 182.47,-101.45 93.75,-478.59l-257.01 -1156.2 -93.54 0.71c2.53,66.28 14.3,133.35 38.63,203.6 20.83,60.14 39.45,92.53 57.71,157.5l209.32 1031.06c-102.61,-0.27 -213.61,9.21 -313.74,-3.83l-2069.57 -15.02z"/>
   <path class="fil6" d="M10616.23 9366.59l56.2 19.62c-2.17,123.04 6.58,59.19 30.07,88.55l69.43 -1.92 27.96 -277.43 76.78 -752.7 47.36 -635.45 218.91 24.79c71.11,31.76 -13.87,-5.23 28.87,24.33 105.84,73.19 71.15,-50.81 76.29,89.25l68.76 -10.13 -2.03 92.08c195.19,4.34 -34.68,54.61 162.21,59.11 -7.78,67.34 -25.91,63 53.57,66.16 27.51,240.79 -29.55,480.09 -40.33,721.37l-13.56 71.88 71.49 4.51c365.95,-35.02 865.86,13.77 1252.11,20.33l-5.13 269.77c-228.81,21.1 -434.96,10.94 -660.94,12.03 -152,0.73 -581.99,-55.34 -684.88,-2.78l-18.03 185.32 -56.47 717.39 1375.97 6.3 -11.03 238.3 96.55 0.17c2.76,-81.96 16.39,-179.64 -1.29,-258.75 -113.78,-2.25 -41.51,-0.37 -70.38,-29.18 -53.59,-53.47 -1.33,-15.89 -95.88,-45.94l-3.73 -62.68 -1099.92 -7.57 43.28 -601.45 1352.63 -2.43 20.75 -566.08c-458.89,-14.55 -877.54,-2.67 -1325.04,-10.27l39 -579.28 1303.88 -3.61c6.59,-88.15 25.03,-149.93 28.84,-254.81 3.46,-95.15 5.36,-190.64 9.18,-285.41 -346.49,-8.46 -665.07,0.99 -1003.83,1.12 -329.18,0.13 -671.23,-11.36 -999.25,-19.31l-48.79 69.88 -149.13 -0.23 -43.47 465.73c-87.11,38.86 -69.82,-64.47 -96.64,228.84 -18.23,199.34 -97.37,821.29 -80.34,930.58z"/>
   <path class="fil5" d="M14142.07 9393.49l-142.99 -5.01 -2.94 -65.33 -86.03 -1.02c-15.02,-124.18 27.88,-56.64 -58.83,-79.23 -10.06,-2.62 -96.69,-1.72 -114.13,-2.02l-0.64 -111.15c-4.32,-3.89 -10.74,-6.44 -15,-8.88l-69.33 -48.55c-29.63,-35.08 54.98,-34.23 -73.49,-41.96l-26.96 -93.86 -72.6 -1.44 -28.83 1196.27 -15.91 310.12c119.5,52.12 365.04,11.67 456.36,20.16 178.8,16.6 708.51,11.66 918.9,13.74 142.28,1.41 303,3.6 452.65,4.79l266.65 4.06c2.49,-242.83 -18.83,-512.11 -21.46,-752.8 -3.85,-354.06 9.61,-376.4 -16.07,-749.58 -114.67,-2.03 -221.86,-20.6 -337.58,-22.12 -108.54,-1.43 -197.92,15.81 -317.39,14.28l-9.34 1182.36 -693.1 4.33 8.06 -767.16z"/>
   <path class="fil6" d="M22616.26 7722.91l7.93 60.8c21.11,-0.39 47.09,-3.92 69.09,3.53 51.22,17.33 22.68,-8.22 48.07,34.56 -14.51,49.38 -3.16,41.28 -93.93,46.13l-429.91 -21.94c143.75,12.69 92.7,19.68 147.83,56.35 64.31,42.76 73.42,-57.63 72,74.25 98.42,1.68 98.2,-14.64 109.6,81.2 122.08,2.07 91.62,-26.87 93.7,88.51l-174.99 -3.02c28.39,98.97 21.07,212.56 46.05,333.34 21.93,106.04 56.91,229.03 65.03,313.64 20.05,209.09 81.27,364.46 100.72,485.61 8.74,54.37 -1.23,98.75 21.28,153.21 12.57,76.5 36.32,140.65 50.84,203.29l93.38 581.29c234.54,-23.96 473.03,-3.37 708.52,1.33 -19.5,-102.71 -31.2,-212.87 -57.78,-307.76l-176.46 -893.11c113.58,-0.41 213.71,-18.43 324.32,-13.09 112.65,5.43 223.01,15.07 335.82,17.02 46.54,90.88 90.17,263.94 101,369.01 24.9,241.61 90.03,413.84 125.2,582.44l124.34 561.96c-81.73,19.12 -851.46,0.93 -1045.62,9.14 -330.67,13.99 -726.44,-11.39 -1062.69,-20.9 -42.89,-32.56 -27.34,-25.89 -39.43,-93.9l-44.41 -282.87c-26.08,-109.56 -59.47,-256.15 -71.62,-372.95l-68.35 -388.75c-19.47,-129.35 -46,-259 -63.5,-388.44l-12.4 -101.47c-4.11,13.54 22.65,83.26 -56.22,27.53 -26.72,-18.88 -21.64,-48.6 -28.12,-79.83l-89.17 -1.52 290.06 1750.23 2069.57 15.02c100.13,13.04 211.13,3.56 313.74,3.83l-209.32 -1031.06c-18.26,-64.97 -36.88,-97.36 -57.71,-157.5 -24.33,-70.25 -36.1,-137.32 -38.63,-203.6l93.54 -0.71 -83.58 -347.99 -1016.28 -9.39 237.59 1204.21 -363.25 -0.24c-32.64,-348.92 -315.67,-1563.95 -334.91,-1787.81l1342.1 2.54c-51.64,-115.89 -64.58,-390.3 -122.34,-555.03l-1250.7 2.91z"/>
   <path class="fil6" d="M2285.23 10461.82c32.09,-5.12 334,15.47 403.58,16.26 147.16,1.68 284.85,-6.05 427.59,-5.52l10.94 -56.09 -666.36 -19.11c43.4,-179.82 122.94,-369.77 158.65,-539.05l71 -278.08c50.5,-193.42 48.21,-126.3 87.56,-254.66 56.19,-183.33 83.35,-357.85 141.71,-540.39 37.81,-118.24 102.51,-434.16 152.87,-518.77 12.08,-52.41 28.4,-64.31 49.2,-119.28 35.4,-93.53 56.85,-240.73 100.69,-339.52l132.46 -19.51 497.27 -3.73c-6.2,111.36 -86.82,304.8 -106.63,418.93 -22.84,109.19 -41.28,45.91 -52.97,152.78 127.89,1.17 205.35,-39.44 343.65,-18.06 -42,192.64 -123.64,360.8 -176.97,587.81l497.06 -10.84c157.64,-6.55 337.89,3.13 498.64,3.22l140.5 -569.01c62.41,2.18 106.99,13.85 172.33,16.77 39.94,1.78 149.8,16.16 163.98,-28.73l28.84 -111.48c23.45,-68.08 27.84,-149.96 50.5,-229.34 21.56,-75.48 35.93,-127.85 52.05,-199.27l55.86 1.39c192.92,-1.7 354.25,-4.91 546.9,8.4 28.42,130.45 -55.57,339.37 -73.68,491.97 -3.48,86.18 -6.52,19.78 -35.84,94.33 -42.36,107.71 -40.38,206.79 -62.15,289.5 -27.55,104.64 -44.46,269.62 -90.28,368.43 -9.59,76.82 -4.71,116.34 -21.1,187.06l-113.17 513.56c-36.26,225.34 -101.2,450.65 -149.93,668.51 -118.75,-2.11 -236.02,-6.11 -354.92,-7.07 -119.59,-0.96 -231.08,17 -334.85,12.07 13.32,-94.64 58.79,-204.91 84.37,-309.65l198.79 -901.7c-67.94,-7.21 -261.52,-3.38 -335.44,1.68 -121.65,8.32 -209.4,-19.18 -337.79,-21.64 -7.41,80.83 -39.29,230.12 -60.13,310.28 -14.17,54.51 -30.32,81.97 -41.38,137.38 -10.19,51.08 -9.06,100.98 -20.97,149 -14.34,6.34 -5.47,6.45 -45.85,13.57 -25.96,4.57 -22.95,3.3 -47.86,3.81l-254.01 -3.63 92.74 -391.77 70.95 -219.06 -185.47 7.85c-74.76,92.28 41.04,87.83 65.8,96.31 -17.47,56.22 -8.77,85.68 -24.75,151.01 -12.5,51.04 -34.18,92.72 -49.4,148.62 -11.91,43.74 -23.03,95.24 -32.81,140.42 -8.1,37.48 -8.1,44.49 -12.54,81.12 -2.74,22.6 -5.7,18.06 -5.29,47.98 27.95,-18.29 63.51,-15.94 110.17,-14.13l366.04 6.27c4.83,-55.2 2.52,-41.78 17.2,-78.96l90.75 1.55 105.51 -427.64 80.74 -1.78 9.72 -76c235.66,-15.7 92.5,-5.51 350.22,1.4 -14.27,116.6 -38.14,214.29 -81.53,308.48 -95.09,206.39 -169.48,858.7 -186.99,883.31 230.52,2.98 618.55,56.18 829.86,14.7 21.37,-76.32 242.66,-1216.53 268.67,-1249.86 18.55,-23.75 -56.3,-29.48 93.68,-30.56l329.26 -1533.16c-269.38,-8.66 -543.75,-10.33 -813.17,-1.17 -184.76,6.29 -135.28,-42.07 -189.03,189.85 -26.42,114.01 -63.87,235.55 -81.96,348.66l-308.01 7.68 -146.63 559.68 -654.97 -0.03c8.35,-117.89 97.32,-467.29 130.67,-559.58l-315.73 -7.42 138.46 -536.36 -945.47 -18.17c-22.74,112.02 -72.55,252.23 -103.61,357.98 -36.79,125.26 -57.9,235.75 -92.29,351.14 -70.54,236.69 -138.62,451.56 -209.64,690.37 -73.1,245.84 -125.89,472.44 -199.98,695.38 -36.04,108.46 -197.13,638.11 -195.88,713.31z"/>
   <path class="fil6" d="M18828.35 10254.73l63.78 1.92c27.88,45.98 0.92,5.31 18.3,45.55 2.02,4.7 3.51,8.66 5.7,13.56l21.84 44.64 68.93 -7.96c-14.11,-218.72 -26.69,-442.95 -53.61,-656.67 -26.8,-212.81 -66.14,-432.24 -71.66,-651.19 -19.64,-153.79 -29.95,-397.68 -43.99,-561.45 -8.21,-95.8 -19.74,-199.2 -25.91,-285.12 -5.84,-81.35 -24,-205.64 -22.86,-272.81l-12.01 -88.03 660.79 3.41 57.31 564.73 341.12 -3.06c6.28,102.58 32.44,202.44 32.61,300.12 0.12,65.5 -9.12,84.17 -3.8,143.72 4.37,48.75 18.12,91.68 16.86,133.55l-338.41 3.12c22.7,248.59 72.19,506.03 105.42,760.05 30.36,232.15 57,508.33 84.37,765.45l-618.36 0.98 1.17 54.04c222.49,34.67 474.55,14.06 701.56,14.41 -26.33,-286.28 3.89,-126.93 -58.73,-411.72 -22.31,-101.42 -40.3,-348.23 -38.71,-455.52l87.7 0.99 -67.73 -579.34c430.1,1.74 328.44,-95.23 400.71,457.13 23.99,183.32 -40.32,136.02 364.81,143.55l95.53 689.77 65.25 1.2 31.83 94.65c18.67,-1.19 25.46,-5.41 44.81,-0.39 34.75,9.04 16.63,3.72 30.63,15.16 23.96,19.57 19.08,49.72 48.57,56.68l757.78 -0.02c-10.16,-209.61 -45.54,-432.93 -102.63,-632.34 -25.91,-90.52 -83.81,-611.5 -105.06,-634.65 39.98,-50.8 6.63,-13.67 52.53,-43.22 102.27,-65.84 -28.9,41.81 30.98,-13.65 8.63,-86.41 -57.9,-456.64 -77.69,-560.88l-63.77 0.02c-35.93,-82.88 11.19,-88.59 -93.56,-96.01 -59.06,78.63 22.15,368.66 39.57,482.88 15.14,99.18 44.81,134.05 57.92,239.05 10.07,80.64 25.74,156.08 38.66,228.95 28.17,158.84 39.15,322.25 57.01,481.22 17.29,154.07 63.34,327.45 76.7,476.77l-683.03 -3.16c-44.96,-33.42 -13.94,14.83 -32.75,-57.9l-50.07 -401.35c-19.74,-145.72 -31.55,-341.99 -60.25,-479.42l-357.09 7.08c0.97,-201.93 -33.28,-407.81 -73.75,-603.27l336.51 2.27 -46.72 -298.64c-21.36,-76.61 -4.5,-108.8 -4.38,-171.38 0.09,-43.48 -10.64,-100.79 -18.81,-150.96 -12.46,-76.45 -23.94,-237.84 -46.42,-297.47l-37.82 -217.42 502.5 7.77c55.8,-27.9 160.73,-7.77 235.56,-5.93 -6.01,-78.25 14.33,-63.11 -60.03,-70.16 -143.54,-13.6 -608.99,5.55 -765.39,3.77l9.9 125.31 -76.51 -0.28c7.11,311.69 123.75,659.8 121.77,942.46l-347.55 -2.92 -70.19 -569.73 -333.83 -8.34 -58.93 -560.19 -977.83 6.36c19.8,421.68 70.62,857.23 117.22,1261.17 47.31,410.11 73.13,858.69 115.63,1279.09z"/>
   <path class="fil6" d="M13283.48 10236.46l1.11 281.83c47.4,12.5 325.67,47.83 386.6,23.4 47.07,-18.87 16.45,6.57 40.11,-32.02 -21.87,-41.56 7.08,-16.14 -42.74,-33.36 -10.13,-3.5 -65.37,-6.67 -78.8,-6.94 -51.2,-1.04 -102.04,-2.16 -153.3,-3.7l13.84 -334.36 28.83 -1196.27c5.96,-71.98 22.8,-79.76 29.02,-269.32l30.38 -824.61c119.1,0.06 152.58,-26.86 254.41,-27.64l523.39 25.01c40.48,1.95 104.13,4.43 143.18,0.16 63.6,-6.97 49.37,-21.19 115.94,-17.72l904.12 21.12 11.58 278.29c-111.75,0.19 -226.56,-3.55 -338.83,-5.3 -79.51,-1.24 -274.01,-22.47 -324.56,-16.42 -227.84,6.03 -420.42,10.96 -648.62,16.26 -8.56,116.38 -31.18,200.31 -29.44,323.76l-7.63 954.86 -8.06 767.16 693.1 -4.33 9.34 -1182.36c119.47,1.53 208.85,-15.71 317.39,-14.28 115.72,1.52 222.91,20.09 337.58,22.12 25.68,373.18 12.22,395.52 16.07,749.58 2.63,240.69 23.95,509.97 21.46,752.8l-266.65 -4.06 -6.49 62.21c112.74,25.17 232.31,7.7 346.96,9.65l0.31 -1015.35c-10.02,-138.75 -27.04,-207.72 -24.48,-358.37l91.52 0.26 -9.61 -350.15 -993.73 -9.81 -13.04 1194.02 -347.84 4.5 24.06 -1736.68c12.74,-50.95 -27.05,-36.5 56.59,-49.68 14.3,-2.25 79.81,4.99 97.03,7.17l475.55 5.43c89.7,-28.79 -47.8,-60.35 223.69,-54.18 138.07,3.14 240.65,-9.94 386.46,-7.46l5.27 -194.83 73.18 -30.49 -6.05 -254.33 -2267.41 -15.29c-42.27,150.84 -56.39,1620.47 -70.67,1911.9 -7.93,161.9 -46.38,476.82 -20.12,637.82z"/>
   <path class="fil2" d="M7271.87 8385.16l-54.36 192.54c-31.73,144.25 -58.52,314.96 -89.16,454.36 -27.87,126.74 -36.63,312.16 -62.73,467.98 -14.08,84.08 -41.24,143.32 -52.48,227.34l-122.14 691.22 -685.07 2.05c73.24,-305.69 132.91,-584.5 179.18,-894.74 43,-288.35 152.65,-613.26 177.27,-893.3 27.19,-109.62 155.91,-767.74 176.62,-795.96l-102.05 -117.24 -57.9 27.45c-42.1,112.26 -193.58,961.83 -240.35,1197.13l-306.67 1489.76c-34.39,178.21 -26.01,136.56 64.92,247.51 104.87,127.94 220.29,265.14 329.83,383.89 262.72,284.8 161.79,263.81 452.17,263.31 234.92,-0.4 472.14,1.88 707.19,4.32 -155.07,-217.74 -329.87,-447.61 -498.16,-658.31 -79.44,-99.47 -74.32,-74.15 -43.33,-217.38 17.88,-82.58 34.31,-177.73 47.8,-257.05 29.82,-175.25 61.06,-340.99 90.61,-504.71 58.7,-325.25 126.64,-658.67 190.73,-1002.73 32.37,-173.76 52.92,-339.28 84.21,-504.05 31.98,-168.48 75.15,-340.89 99.42,-517.41l-409.82 -10.22c-19.29,40.08 -26.88,100.41 -34.36,150.35l237.98 4.04 -11.04 96.43c-0.67,3.87 -1.35,8.45 -1.85,12.66 -0.53,4.45 -0.69,8.8 -1.04,13.49 -0.75,10.27 -0.09,57.86 -0.55,71.11l-64.87 376.16z"/>
   <path class="fil3" d="M15966.91 7895.39l0.43 -139.79c39.92,0.68 29.68,-2.27 61.97,7.16l127.22 75.31 -5.1 67.16 51.58 3.62c59.91,80.59 -31.64,42.98 101.19,67.39 41.68,108.18 -6.73,19.4 57.36,61.59 21.98,14.47 35.19,-64.17 44.21,77.08 174.62,21.88 -13.9,64.79 164.34,55.72 6.42,103.23 4.33,45.44 60.06,91.49l38.9 46.79c29.09,21.97 10.63,13.53 60.56,14.03l11.84 64.6 69.81 8.13c12.64,-95.14 -34.03,-196.91 -8.92,-276.9l419.11 -2.58 241.34 4.62 64.07 857.31c19.84,101.98 5.95,18.48 78.38,79.35 60.9,51.18 -29.44,-1.69 72.15,66.38 3.3,2.21 7.68,4.44 10.91,6.87l18.79 17.18c90.41,86.41 -61.89,-7.49 38.14,34.66 7.47,3.15 44.91,6.64 69.99,16.54l30.57 571.12c-14.07,47.89 2.26,15.67 -25.13,47.6 -107.77,-1.83 -94.85,28.89 -93.83,-80.92 -83.36,-1.41 -71.08,30.61 -86.57,-98.82l-65.14 11.46 55.11 836.75 695.33 10.81 -76.54 -747.94c-6.5,-87.94 7.38,-157.81 -3.68,-259.31l-59.94 -755.05c-4.24,-109.04 -40.33,-181.78 -37.56,-264.36 -110.18,-32.67 -22.57,2.87 -90.73,-48.85l-69.85 -47.77c-67.88,-68.9 -35.89,-16.25 -90.55,-64.86 -25.24,-22.44 2.21,-4.86 -21.84,-25.16l-72.8 -36.97 -2.1 -69.79c-130.12,-2.54 -52,-9.15 -85.75,-30.9 -40.47,-26.08 -60.76,-11.33 -90.63,-19.82l-10.77 -78.76c-48.8,9.26 -55.31,-17.83 -55.31,-17.83l-33.93 -39.61c-2.56,-1.91 -7,-3.8 -9.76,-5.62 -2.91,-1.93 -7.62,-3.38 -10.63,-5.34 -61.65,-40.04 -30.66,-30.76 -60.99,-58.76 -59,-54.47 -42.17,4.47 -55.18,-30.98 -1.99,-5.43 -8.89,-2.2 -14.69,-4.56l-1.45 -30.73c-90.91,5.86 -179.29,-22.38 -294.01,-17.72l-811.4 2.86c-62.81,-16.84 -34.79,10.36 -60.41,-47.98 39.43,-80.2 -58.52,-34.4 222.72,-38.55l748.07 9.46 6.48 -66.92 -1211.61 -3.65c-4.83,91.23 -15.93,113.16 -3.83,203.76z"/>
   <path class="fil5" d="M9146.03 8976.33l-78.29 545.27 348.8 -6.79c-3.95,176.06 -136.51,823.91 -110.87,928.62 203.83,-13.53 458.43,-3.74 666.65,0.49l82.47 -644.01c18.15,-212.76 74.34,-446.26 67.14,-667.94 -8.28,-255.08 43.21,-431.04 82.1,-647.74 35,-195.01 65.16,-477.03 81.36,-677.06l-662.23 10.93c0.8,73.57 4.04,102.59 -21.97,178.32l27.57 17.8c3.02,2.31 17.78,12.74 21.13,15.82l149.22 151.79c43.85,46.29 21.79,39.62 87.77,57.44 -6.19,191.62 -37.84,349.34 -57.72,544.29 -99.79,17.72 -41.56,5.06 -88.77,-47.25l-104.36 -100.05c-2.4,-2.16 -5.7,-5.24 -8.01,-7.57 -30.43,-30.67 -26.95,-68.87 -68.33,-61.71 -51.17,29.76 -20.03,-46.5 -43.95,72.41l-25.88 297.5 -317.22 0.77c-14.51,17.1 -0.9,-23.89 -26.61,38.67z"/>
   <path class="fil5" d="M16741.47 8387.54c9.76,170.1 27.47,327.65 25.79,510.16 -143.61,-1.43 -59.47,0.38 -100.43,-44.05 -44.64,-48.42 -32.25,-15.71 -75.32,-60.93l-109.41 -113.85c-2.81,-2.58 -6.87,-5.13 -9.87,-7.44l-39.29 -22.86c-2.16,-1.49 -5.58,-4.67 -7.65,-6.15 -101.77,-72.81 -33.65,14.64 -95.96,-57.5 -28.03,-32.44 7.24,-4.81 -25.16,-32.93 -79.55,-69.04 -22.08,-6.75 -78.73,-95.49l-62.7 -1.45c-22.19,98.52 37.31,607.1 33.76,780.58 -1.63,79.33 -13.84,166.68 -13.15,236.82 1.73,176.56 23.69,340 27.08,524.76l15.32 482.13 703.54 13.33c0,-249.5 -91.79,-989.49 -65.9,-1228.46 146.17,0.65 191.32,26.71 347.94,-2.44 109.19,-20.33 235.36,-5.46 344.37,-3.3l19.44 391.07 65.14 -11.46c15.49,129.43 3.21,97.41 86.57,98.82 -1.02,109.81 -13.94,79.09 93.83,80.92 27.39,-31.93 11.06,0.29 25.13,-47.6l-30.57 -571.12c-25.08,-9.9 -62.52,-13.39 -69.99,-16.54 -100.03,-42.15 52.27,51.75 -38.14,-34.66l-18.79 -17.18c-3.23,-2.43 -7.61,-4.66 -10.91,-6.87 -101.59,-68.07 -11.25,-15.2 -72.15,-66.38 -72.43,-60.87 -58.54,22.63 -78.38,-79.35l-683.79 7.13c-11.02,-98.96 -10.73,-176.93 -14.62,-279.02 -1.7,-44.5 -25.26,-172.56 -11.63,-207.49 44.43,-113.93 84.07,-15.41 113.11,20.52l66.77 57.11 -18.74 -323.05 331.46 1.28 34.98 573.69c12.96,82.11 -13.06,62.19 63.51,68.53l19.15 -84.76c0.24,-20.14 -3.62,-69.5 -4.99,-92.26l-31.08 -530.23c-76.16,-1.94 -219.02,7.81 -254.77,-33.4 20.13,-43.45 26.48,-14.18 85.23,-39.98l-419.11 2.58c-25.11,79.99 21.56,181.76 8.92,276.9l-69.81 -8.13z"/>
   <path class="fil5" d="M8005.47 7936.14c153.4,-0.29 122.95,-7.37 142,25.68 42.35,73.52 -36.35,-63.28 10.15,26.88 17.85,34.61 -0.6,7.02 36.32,29.36 56.78,34.36 2.32,8.65 41.74,47.99l56.76 35.06c-7.89,61.82 0.46,102.83 -12.12,164.79l-167.49 958.42c-136.04,-2.31 -60.82,-19.27 -87.61,-60.69l-108.58 -93.66c-1.88,-1.91 -5.16,-4.96 -6.91,-7.13 -1.88,-2.32 -4.23,-6.13 -5.98,-8.76 -2.61,-3.93 -9.01,-18.65 -11.22,-22.83l-75.14 -37.14c-7.97,102.7 -50.72,252.94 -65.5,352.49 -19.71,132.68 -19.04,230.72 -44,361.38l-141.75 728.94c114.35,1.94 230.65,7.92 343.47,-3.83 131.82,-13.74 226.99,10.45 351.55,4.59 9.83,-98.6 125.44,-866.93 148.86,-897.62 -7.82,-105.25 52.25,-496.25 74.92,-614.25l330.59 5.48 40.91 -217.63c118.07,4.43 53.16,-3.16 80.56,85.64l59.93 -3.22 85.02 -563.99 -324.86 -12.15 66.76 -415.33c-56.36,19.93 -683.61,7.66 -790.34,5.05l-28.04 126.48z"/>
   <path class="fil3" d="M4356.53 8914.99c-36.09,37.99 -18.11,18.37 -24.06,79.27l158.5 9.42c-26.97,49.35 9.25,54.58 -13.1,104.91 -43.14,97.17 -61.86,-47.72 -115.82,133.58 -30.54,102.61 -53.39,233.12 -86.93,328.02 -176.9,-3.01 61.65,-81.93 -129.07,-71.01 5.27,-30.81 9.2,-48.44 -11.19,-85.07l-72.18 -1.48 -92.74 391.77 254.01 3.63c24.91,-0.51 21.9,0.76 47.86,-3.81 40.38,-7.12 31.51,-7.23 45.85,-13.57 11.91,-48.02 10.78,-97.92 20.97,-149 11.06,-55.41 27.21,-82.87 41.38,-137.38 20.84,-80.16 52.72,-229.45 60.13,-310.28 128.39,2.46 216.14,29.96 337.79,21.64 73.92,-5.06 267.5,-8.89 335.44,-1.68l-198.79 901.7c-25.58,104.74 -71.05,215.01 -84.37,309.65 103.77,4.93 215.26,-13.03 334.85,-12.07 118.9,0.96 236.17,4.96 354.92,7.07 48.73,-217.86 113.67,-443.17 149.93,-668.51l113.17 -513.56c16.39,-70.72 11.51,-110.24 21.1,-187.06l-44.84 3.32c-57.83,-116.56 1.19,-9.03 -77.11,-76.56 -2.64,-2.27 -5.56,-5.82 -8.05,-8.25 -2.53,-2.47 -4.99,-6.45 -7.44,-9.02 -68.19,-71.64 -72.82,-51.29 -53.34,-102.15l-77.4 -26.7 24.34 -204.72c-127.57,23.48 11.31,70.25 -128.47,90.67 -55.04,-36.96 9.16,23.64 -23.31,-33.96 -1.65,-2.93 -3.24,-7.71 -4.79,-10.54 -1.37,-2.52 -2.44,-7.3 -3.75,-9.59 -45.87,-79.74 -79.12,37.2 -53.62,-97.4l-69.14 -4.27 1.79 -115.43c25.46,-21.34 14.35,-14.43 52.58,-33.03 24.37,-11.85 -4.5,-0.57 42.24,-12.87 1.55,-91.05 30.76,-104.35 44.04,-184.11l-57.09 9.2 -28.84 111.48c-14.18,44.89 -124.04,30.51 -163.98,28.73 -65.34,-2.92 -109.92,-14.59 -172.33,-16.77l-140.5 569.01c-160.75,-0.09 -341,-9.77 -498.64,-3.22z"/>
   <path class="fil5" d="M20262.06 7906.83l76.51 0.28 -9.9 -125.31c156.4,1.78 621.85,-17.37 765.39,-3.77 74.36,7.05 54.02,-8.09 60.03,70.16 -74.83,-1.84 -179.76,-21.97 -235.56,5.93l156.22 9.49 21.9 170.29c5.72,35.9 10.5,57.31 17.01,92.66 0.77,4.19 1.6,8.28 2.32,12.54l58.67 413.81 -63.1 4.43c42.64,156.91 58.32,329.06 75.57,504.86 -108.39,-0.88 -80.95,-11.74 -93.49,-22.96l-40.84 -40.36c-39.71,-25.99 -28.51,22.25 -58.15,-59.77l-42.98 -261.1c-13.61,-95.01 6.73,-125.07 -78.93,-130.05 -36.66,60.9 14.81,176.35 22.17,292.6l-74.78 1.94c-71.94,-114.94 9.71,-13.14 -94.05,-89.17 -2.63,-1.93 -5.87,-5.24 -8.34,-7.33 -45.02,-38.41 -4.14,-31.37 -85.6,-49.34 -49.92,-105.85 38.38,-73.44 -77.8,-85.67 -36.47,38.04 -33.58,-61.08 -30.87,72.59l46.72 298.64 -336.51 -2.27c40.47,195.46 74.72,401.34 73.75,603.27l357.09 -7.08c28.7,137.43 40.51,333.7 60.25,479.42l50.07 401.35c18.81,72.73 -12.21,24.48 32.75,57.9l683.03 3.16c-13.36,-149.32 -59.41,-322.7 -76.7,-476.77 -17.86,-158.97 -28.84,-322.38 -57.01,-481.22 -12.92,-72.87 -28.59,-148.31 -38.66,-228.95 -13.11,-105 -42.78,-139.87 -57.92,-239.05 -17.42,-114.22 -98.63,-404.25 -39.57,-482.88 104.75,7.42 57.63,13.13 93.56,96.01l63.77 -0.02 -156.07 -985.22 -983.48 -12.48 23.53 199.44z"/>
   <path class="fil5" d="M18788.87 7925.2c54.94,11.52 47.17,1.73 63.59,49.89l99.49 -2.42c13.53,126.4 8.39,37.18 94.27,116.94 40.38,37.5 -17.81,-7.55 30.55,25.38 27.65,18.83 -8.56,-17.09 28.27,17.28 10.89,10.16 33.33,54.7 37.87,67.28 4.05,11.22 130.97,1000.76 83.07,1084.7 -132.54,-7.9 -5.4,0.4 -102.05,-78.53l-56.02 -47.25c-40.26,-44.91 36.19,12.93 -23.05,-23.31 -23.63,-14.46 -28.87,-7.19 -54.28,-8.46 -16.25,-75.37 -0.66,-84.18 -108.95,-82.12 5.52,218.95 44.86,438.38 71.66,651.19 26.92,213.72 39.5,437.95 53.61,656.67 19.06,28.71 15.33,77.21 17,140.72l90.87 16.08 618.36 -0.98c-27.37,-257.12 -54.01,-533.3 -84.37,-765.45 -33.23,-254.02 -82.72,-511.46 -105.42,-760.05l338.41 -3.12c1.26,-41.87 -12.49,-84.8 -16.86,-133.55 -5.32,-59.55 3.92,-78.22 3.8,-143.72 -0.17,-97.68 -26.33,-197.54 -32.61,-300.12l-341.12 3.06 -57.31 -564.73 -660.79 -3.41 12.01 88.03z"/>
   <path class="fil6" d="M24882.95 10604.36c162.25,3.45 328.78,9.35 493.02,13.45 143.64,3.6 305.66,-14.79 459.8,-13.2l-113.63 -476.85 80.88 2.97c2.75,-48.4 -118,-544.35 -139.44,-576.6 -99.33,-2.19 -74.47,-13.03 -95.38,-61.56 -18.5,-42.93 -19.55,-61.22 -26.66,-111.59 102.28,-0.59 139.05,-30.53 251.52,-2.52 101.42,25.25 148.09,22.01 253.46,23.8l140.5 442.84c29.27,100.01 85.3,578.86 219.68,769.93l702.87 14.46 -25.61 -78.03 -623.58 -5.54c-63.31,-303.42 -165.6,-565.91 -230.17,-864.73 -83.93,-151.53 -5.84,-355.14 -150.17,-373.34l-191.29 1.83c-109.26,2.05 -114.61,25.23 -232.47,11.02l-219 -13.94c44.11,208.93 90.08,414.66 150.66,615.56 49.44,163.97 149.21,469.59 164.21,625.77l-714.28 -12.66c-25.57,-73.6 -38.81,-170.2 -57.18,-255.52l-190.19 -758.36c-76.26,-356.51 -50.7,-364.88 -176.86,-762.85l-48.17 -264.01c77.13,-26.08 78.8,-13.49 94.58,65.9 106.46,17.08 66.49,-23.03 101.38,58.41l60.88 1.01c-37.75,-119.61 -92.22,-348.39 -110.31,-476.31l-16.84 -77.12 -78.55 26.29 29.91 123.63 -150.47 1.79c-2.54,-110.95 -74.91,-287.27 -73.36,-362.45 199.91,-1.75 402.51,0.18 602.86,3.07 212,3.06 424.17,-2.42 634.52,16.13l380.58 3.97c114.38,1.82 260.68,-6.31 366.42,9.76 26.27,97.59 54.27,212.84 87.52,312.15 33.75,100.78 57,202 90.51,307.57 13.31,65.07 58.15,133.81 78.75,209.32l256.72 905.4c19.66,94.78 14.18,130.09 52.29,237.92 33.85,95.8 119.26,366.1 128.6,461.61l95.29 2.11c-19.83,-140.5 -85.23,-295.93 -110.15,-426.04 -20.37,-106.38 -39.89,-123.92 -82.62,-210.84l-30.58 -82.35c-32.41,-123.49 -260.45,-891.7 -263.37,-963.59l92.81 -4.01 -265.31 -907.5 -2325.52 0.43c2.35,3.38 59.96,301.33 71.02,346.6 30.52,124.95 68.31,249.73 95.66,366.23 69.35,295.49 474.36,2121.28 504.26,2160.58z"/>
   <path class="fil5" d="M3127.34 10416.47c29.45,-33.51 13.63,-5.66 28.83,-66.46 41.45,-165.83 126.1,-570.78 169.35,-688.75 17.4,-47.48 39.13,-92.63 54.57,-144.15 115.61,-385.73 -54.29,-305.33 520.31,-315.84 0.91,-53.6 -4.97,-22.15 16.42,-32.2l-30.46 -26.33c-3.5,-2.84 -20.91,-16.05 -24.78,-19.35l-101.23 -83.52 10.92 -55.34 -81.54 -4.48c23.71,-82.18 13.07,-61.01 -61.41,-63.09 20.9,-66.26 106.64,-399.79 94.04,-438.06 -94.44,2.24 -54.06,-13.79 -115.77,221.96 -23.67,90.44 6.57,60.94 -63.75,71.76l-70.47 -85.5c-2.01,-2.1 -5.69,-5.14 -7.6,-7.17 -1.82,-1.92 -5.04,-5.35 -6.76,-7.25l-54.1 -62.48c-31.22,-44.66 -17.19,-50.68 -88.08,-106.91l-149.3 -167.32c-29.61,-28.43 -12.64,-42.47 -27.58,-72.03l-66.18 2.45c-50.36,84.61 -115.06,400.53 -152.87,518.77 -58.36,182.54 -85.52,357.06 -141.71,540.39 -39.35,128.36 -37.06,61.24 -87.56,254.66l-71 278.08c-35.71,169.28 -115.25,359.23 -158.65,539.05l666.36 19.11z"/>
   <path class="fil3" d="M22169.81 10757.83l-175.08 229.44c-60.38,74.71 -250.82,348.85 -297.31,378.78l1935.34 23.4c27.13,-5.61 192.24,-185.66 241.1,-231 28.93,-26.84 62.39,-43.42 91.76,-68.49 66.01,-56.39 251.71,-295.08 305.86,-309.36 -246.05,-24.81 -1252.43,-4.3 -1564.33,-7.49 -178.04,-1.81 -359.67,-11.8 -537.34,-15.28z"/>
   <path class="fil4" d="M27101.46 10322.74l71.01 228.69 -88.51 0.03 25.61 78.03 -702.87 -14.46c-134.38,-191.07 -190.41,-669.92 -219.68,-769.93l-140.5 -442.84c-105.37,-1.79 -152.04,1.45 -253.46,-23.8 -112.47,-28.01 -149.24,1.93 -251.52,2.52 7.11,50.37 8.16,68.66 26.66,111.59 20.91,48.53 -3.95,59.37 95.38,61.56l-18.38 -98.58 336.81 8.97c66.55,125.29 132.96,447.02 171.63,611.75l175.27 635.34c-120.98,78.97 -892.61,741.36 -912.5,750.7 216.31,16.68 455.3,5.68 674.3,9.31 351.64,5.84 301.96,-1.15 518.94,-163.38l776.48 -597.96c-35.14,-291.05 -531.61,-1750.23 -583.29,-2072.26l-92.81 4.01c2.92,71.89 230.96,840.1 263.37,963.59l30.58 82.35c42.73,86.92 62.25,104.46 82.62,210.84 24.92,130.11 90.32,285.54 110.15,426.04l-95.29 -2.11z"/>
   <path class="fil3" d="M13458.24 10703.66c-9.62,38.99 44.89,557.65 61.13,607.37l1938.33 20.78c-11.12,-62.44 56.31,-507.39 56.52,-608.56l-2055.98 -19.59z"/>
   <path class="fil3" d="M11919.24 10701.28l-352.13 -7.61c-102.08,4.09 -212.29,-17.37 -298.12,-8.34 -211.29,22.24 -376.68,-9.97 -572.91,1.5 41.65,78.54 67.52,204.77 113.46,296.09 49.03,97.45 85.31,216.6 124.61,310.11l1914.94 21.57c-5.93,-102.75 -80.02,-553.33 -121.37,-615.46l-396 4.82c-133.7,2.99 -279.04,-0.42 -412.48,-2.68z"/>
   <path class="fil3" d="M6562.38 8632.61c-24.62,280.04 -134.27,604.95 -177.27,893.3 -46.27,310.24 -105.94,589.05 -179.18,894.74l685.07 -2.05 122.14 -691.22c11.24,-84.02 38.4,-143.26 52.48,-227.34 26.1,-155.82 34.86,-341.24 62.73,-467.98 30.64,-139.4 57.43,-310.11 89.16,-454.36 -81.69,-3.3 -69.32,-10.1 -82.1,75.05l-64.85 383.8c-20.39,47.26 4.9,28.82 -42.35,43.8 -108.8,10.12 -12.92,-33.3 -88.96,-84.03 -91.86,-61.31 16.74,31.7 -29.21,-14.31 10.14,-56.23 10.81,-118.93 21.24,-176.48 9.21,-50.8 31.34,-114.99 9.1,-159.23 -110.95,12.8 -22.19,194.64 -114.76,217.79 -94.25,23.58 -39.39,-33.95 -84.99,-72.68l-117.34 -159.31 -60.91 0.51z"/>
   <path class="fil7" d="M13479.13 8935.04l72.6 1.44 26.96 93.86c128.47,7.73 43.86,6.88 73.49,41.96l69.33 48.55c4.26,2.44 10.68,4.99 15,8.88l0.64 111.15c17.44,0.3 104.07,-0.6 114.13,2.02 86.71,22.59 43.81,-44.95 58.83,79.23l86.03 1.02 2.94 65.33 142.99 5.01 7.63 -954.86c-1.74,-123.45 20.88,-207.38 29.44,-323.76 228.2,-5.3 420.78,-10.23 648.62,-16.26l0.05 -57.98c-144.97,-4.71 1.46,7.89 -124.17,-83.83 -2.69,-1.96 -7.07,-3.63 -9.65,-5.54 -2.41,-1.79 -6.28,-4.08 -8.57,-5.91 -50.6,-40.39 -4.35,-40.32 -106.25,-54.29l-3.72 -70.14c-66.57,-3.47 -52.34,10.75 -115.94,17.72 -39.05,4.27 -102.7,1.79 -143.18,-0.16l-523.39 -25.01c-101.83,0.78 -135.31,27.7 -254.41,27.64l-30.38 824.61c-6.22,189.56 -23.06,197.34 -29.02,269.32z"/>
   <path class="fil4" d="M20601.08 10422.55c10,239.35 68.84,192.99 -9.21,308.22l-426.56 691.69c134.85,10.63 875.32,27.79 954.22,-0.21 56.93,-20.19 168.35,-204.29 219.56,-271.61 74.34,-97.75 143.01,-195.48 214.74,-294.59 36.77,-50.79 63.63,-83.92 101.24,-138.37 40.6,-58.78 25.9,-97.75 12.77,-187.34 -12.6,-85.88 -181.49,-1225.91 -212.07,-1264.37 -59.88,55.46 71.29,-52.19 -30.98,13.65 -45.9,29.55 -12.55,-7.58 -52.53,43.22 21.25,23.15 79.15,544.13 105.06,634.65 57.09,199.41 92.47,422.73 102.63,632.34l-757.78 0.02c-29.49,-6.96 -24.61,-37.11 -48.57,-56.68 -14,-11.44 4.12,-6.12 -30.63,-15.16 -19.35,-5.02 -26.14,-0.8 -44.81,0.39l-31.83 -94.65 -65.25 -1.2z"/>
   <path class="fil4" d="M19114.77 10509.24l-90.87 -16.08c-1.67,-63.51 2.06,-112.01 -17,-140.72l-68.93 7.96 -21.84 -44.64c-2.19,-4.9 -3.68,-8.86 -5.7,-13.56 -17.38,-40.24 9.58,0.43 -18.3,-45.55l-63.78 -1.92c13.57,422.83 102.21,251.23 -66.92,632.98 -56.68,127.92 -196.16,406.21 -221.58,525.22 263.89,5.69 529.12,9.39 793.22,12.18 210.61,2.22 180.31,-9.97 391.15,-412.2 185.22,-353.37 203.4,-262.35 170.18,-576.57 -26.16,-247.37 -67.82,-487.34 -86.64,-724.9l-87.7 -0.99c-1.59,107.29 16.4,354.1 38.71,455.52 62.62,284.79 32.4,125.44 58.73,411.72 -227.01,-0.35 -479.07,20.26 -701.56,-14.41l-1.17 -54.04z"/>
   <path class="fil3" d="M10799.89 9195.41l-27.96 277.43 -88.17 967.21c168.78,4.67 341.18,-10.92 510,3.83 161.89,14.14 361.84,11.85 523.55,3.77 245.8,-12.28 707.59,19.54 1015.01,1.07l7.49 -51.45 11.03 -238.3 -1375.97 -6.3 56.47 -717.39 -1.07 -87.49c-0.54,-3.78 -2.34,-9.52 -2.88,-12.49l-8.14 -23.07c-49.7,4.58 -55.95,-43.2 -64.48,141.84l-42.22 536.42c-209.18,5.18 38.82,-82.03 -153.29,-85.16 7.29,-90.04 -0.01,-184.14 10.46,-271.87 5.33,-44.66 50.73,-245.84 -21.33,-254.65 -81.14,-9.91 -36.12,40.57 -51.37,181.11 -6.78,62.4 -24.05,113.71 -28.92,196.02 -137.63,1.6 10.15,12.69 -111.13,-78.6 -73.31,-55.19 -6.81,-70.68 -115.4,-73.01 3.92,-93.08 34.05,-388.86 9.05,-442.71 -58.29,5.6 -30.66,-15.22 -50.73,33.79z"/>
   <path class="fil7" d="M21919.89 8891.32l12.4 101.47 75.2 -10.07c62.21,101.04 35.55,62.82 67.16,82.47l148.72 116.07c36.16,43.89 -16.2,45.82 88.91,40.61 5.8,-78.61 -23.12,-95.13 -4.37,-164.5 88.3,7.14 76.92,36.13 88.1,128.75 7.88,65.31 32.01,117.87 49.09,177.68 244.91,25.47 -112.25,58.68 253.63,65.28 -22.51,-54.46 -12.54,-98.84 -21.28,-153.21 -19.45,-121.15 -80.67,-276.52 -100.72,-485.61 -8.12,-84.61 -43.1,-207.6 -65.03,-313.64 -24.98,-120.78 -17.66,-234.37 -46.05,-333.34l174.99 3.02c-2.08,-115.38 28.38,-86.44 -93.7,-88.51 -11.4,-95.84 -11.18,-79.52 -109.6,-81.2 1.42,-131.88 -7.69,-31.49 -72,-74.25 -55.13,-36.67 -4.08,-43.66 -147.83,-56.35 -143.99,-2.83 -328.61,-10.9 -467,17.14l169.38 1028.19z"/>
   <path class="fil4" d="M24882.95 10604.36c11.96,115.46 24.62,72.27 -33.92,141.01 -247.1,290.17 -573.67,520.04 -722.59,711.2 210.88,7.03 433.4,-2.18 630.92,0.26 376.44,4.66 271.74,32.55 494.28,-148.64 241.39,-196.53 466.33,-406.59 702.98,-606.37 -16.78,-97.45 -38.75,-185.75 -65.79,-290.38l-53.91 -213.42c-0.25,-0.86 -11.88,-34.64 -12.48,-35.94 -15.9,-34.38 2.05,-7.78 -19.42,-31.35l-80.88 -2.97 113.63 476.85c-154.14,-1.59 -316.16,16.8 -459.8,13.2 -164.24,-4.1 -330.77,-10 -493.02,-13.45z"/>
   <path class="fil4" d="M16049.87 10549.48c4.31,146.34 -29.47,289.06 -51.24,433.82 -17.44,116.07 -59.52,305.48 -55.1,413.57l955.41 4.72c60.42,-195.73 106.45,-404.55 161.46,-609.07 64.68,-240.5 10.54,-476.92 10.69,-717.54 -132.22,6.96 -94.17,30.44 -82.87,208.01 6.37,100.05 -16.46,218.23 10.92,266.68 -157.15,-1.62 -316.7,20.78 -460.02,17.55 -79.49,-1.78 -173.33,0.6 -254.38,1.8 -97.86,1.46 -146.32,-17.8 -234.87,-19.54z"/>
   <path class="fil7" d="M3072.77 8266.41l66.18 -2.45c14.94,29.56 -2.03,43.6 27.58,72.03l149.3 167.32c70.89,56.23 56.86,62.25 88.08,106.91l54.1 62.48c1.72,1.9 4.94,5.33 6.76,7.25 1.91,2.03 5.59,5.07 7.6,7.17l70.47 85.5c70.32,-10.82 40.08,18.68 63.75,-71.76 61.71,-235.75 21.33,-219.72 115.77,-221.96 12.6,38.27 -73.14,371.8 -94.04,438.06 74.48,2.08 85.12,-19.09 61.41,63.09l81.54 4.48 -10.92 55.34 101.23 83.52c3.87,3.3 21.28,16.51 24.78,19.35l30.46 26.33c-21.39,10.05 -15.51,-21.4 -16.42,32.2l47.76 0.15 185.47 -7.85 -70.95 219.06 72.18 1.48c20.39,36.63 16.46,54.26 11.19,85.07 190.72,-10.92 -47.83,68 129.07,71.01 33.54,-94.9 56.39,-225.41 86.93,-328.02 53.96,-181.3 72.68,-36.41 115.82,-133.58 22.35,-50.33 -13.87,-55.56 13.1,-104.91l-158.5 -9.42c5.95,-60.9 -12.03,-41.28 24.06,-79.27l-497.06 10.84c53.33,-227.01 134.97,-395.17 176.97,-587.81 -138.3,-21.38 -215.76,19.23 -343.65,18.06 11.69,-106.87 30.13,-43.59 52.97,-152.78l-66.46 8.14 -15.22 -40.66c-1.87,-3.46 -4.26,-7.46 -6.34,-10.74 -1.93,-3.04 -4.95,-6.38 -7.01,-9.18l-68.16 -84.16c-30.45,-30.41 -44.61,-55.3 -96.73,-56.73l6.31 -93.63c-75.8,-11.63 -65.57,12.14 -50.58,-55.99l-97.92 -17.83 11.47 -54.42 -132.46 19.51c-43.84,98.79 -65.29,245.99 -100.69,339.52 -20.8,54.97 -37.12,66.87 -49.2,119.28z"/>
   <path class="fil7" d="M10799.89 9195.41c20.07,-49.01 -7.56,-28.19 50.73,-33.79 25,53.85 -5.13,349.63 -9.05,442.71 108.59,2.33 42.09,17.82 115.4,73.01 121.28,91.29 -26.5,80.2 111.13,78.6 4.87,-82.31 22.14,-133.62 28.92,-196.02 15.25,-140.54 -29.77,-191.02 51.37,-181.11 72.06,8.81 26.66,209.99 21.33,254.65 -10.47,87.73 -3.17,181.83 -10.46,271.87 192.11,3.13 -55.89,90.34 153.29,85.16l42.22 -536.42c8.53,-185.04 14.78,-137.26 64.48,-141.84l8.14 23.07c0.54,2.97 2.34,8.71 2.88,12.49l1.07 87.49 18.03 -185.32 -76.78 -1.37c-11.19,-255.64 31.89,-222.05 97.78,-224.93l-0.41 142.86 189.71 15.11c49.27,-6.37 25.8,2.34 57.34,-22.75 2.1,-76.49 15.37,-19.76 -25.61,-63.64l-80.54 -62.75c-11.46,-4.8 -53.7,-9.15 -67.06,-11.64l4.41 -70.24 -71.49 -4.51 13.56 -71.88 -75.16 -23.42c-36.99,-74.37 -21.43,-25.27 -73.34,-76.31 -31.33,-30.81 16.28,1.66 -22.94,-27.28 -25.36,-18.71 -16.25,-44.99 -73.09,10.67 -41.03,40.18 48.43,44.24 -74.56,45.22 0.91,-264 -6.19,-195.83 -30.78,-210.89 -52.31,-32.03 -24.4,-20.26 -52.44,-52.22l-14.54 -14.57c-2.2,-1.9 -6.53,-4.08 -8.86,-5.92 -2.41,-1.9 -6.97,-3.7 -9.42,-5.66l-38.63 -45.27c-1.67,-2.87 -4.52,-6.15 -5.58,-13.06 -1.09,-7.11 -2.72,-9.47 -5.3,-14.01l-128.97 1.21 -76.78 752.7z"/>
   <path class="fil6" d="M25361.93 9022.64l611.52 3.97c111.55,-19.46 36.95,2.38 70.67,-40.8l-230.59 -838.05 -668.84 1.11c16.25,73.98 44.89,140.47 63.33,212.99 18.12,71.3 12.49,154.78 28.4,224.12 10.52,45.84 95.39,384.86 125.51,436.66z"/>
   <path class="fil7" d="M5360.82 8225.76l57.09 -9.2c-13.28,79.76 -42.49,93.06 -44.04,184.11 -46.74,12.3 -17.87,1.02 -42.24,12.87 -38.23,18.6 -27.12,11.69 -52.58,33.03l-1.79 115.43 69.14 4.27c-25.5,134.6 7.75,17.66 53.62,97.4 1.31,2.29 2.38,7.07 3.75,9.59 1.55,2.83 3.14,7.61 4.79,10.54 32.47,57.6 -31.73,-3 23.31,33.96 139.78,-20.42 0.9,-67.19 128.47,-90.67l-24.34 204.72 77.4 26.7c-19.48,50.86 -14.85,30.51 53.34,102.15 2.45,2.57 4.91,6.55 7.44,9.02 2.49,2.43 5.41,5.98 8.05,8.25 78.3,67.53 19.28,-40 77.11,76.56l44.84 -3.32c45.82,-98.81 62.73,-263.79 90.28,-368.43 21.77,-82.71 19.79,-181.79 62.15,-289.5 29.32,-74.55 32.36,-8.15 35.84,-94.33 -130.56,-2.07 -47.04,33 -85.19,-42.97l-41.48 -48.24c-34.95,-35.28 8.5,25.13 -13.76,-20.93 -62.67,-129.69 -69.71,27.1 -57.73,-116.88 -5.34,-1.32 -56.45,-13.29 -57.79,-13.84l-86.47 -92.87c-14.75,-25.67 -9.52,-19.11 -27.47,-38.63l-114.47 -77.01 11.14 -49 -55.86 -1.39c-16.12,71.42 -30.49,123.79 -52.05,199.27 -22.66,79.38 -27.05,161.26 -50.5,229.34z"/>
   <path class="fil3" d="M10876.67 8442.71l128.97 -1.21c2.58,4.54 4.21,6.9 5.3,14.01 1.06,6.91 3.91,10.19 5.58,13.06l38.63 45.27c2.45,1.96 7.01,3.76 9.42,5.66 2.33,1.84 6.66,4.02 8.86,5.92l14.54 14.57c28.04,31.96 0.13,20.19 52.44,52.22 24.59,15.06 31.69,-53.11 30.78,210.89 122.99,-0.98 33.53,-5.04 74.56,-45.22 56.84,-55.66 47.73,-29.38 73.09,-10.67 39.22,28.94 -8.39,-3.53 22.94,27.28 51.91,51.04 36.35,1.94 73.34,76.31l75.16 23.42c10.78,-241.28 67.84,-480.58 40.33,-721.37 -79.48,-3.16 -61.35,1.18 -53.57,-66.16 -196.89,-4.5 32.98,-54.77 -162.21,-59.11l2.03 -92.08 -68.76 10.13c-5.14,-140.06 29.55,-16.06 -76.29,-89.25 -42.74,-29.56 42.24,7.43 -28.87,-24.33l-218.91 -24.79 -47.36 635.45z"/>
   <path class="fil7" d="M6562.38 8632.61l60.91 -0.51 117.34 159.31c45.6,38.73 -9.26,96.26 84.99,72.68 92.57,-23.15 3.81,-204.99 114.76,-217.79 22.24,44.24 0.11,108.43 -9.1,159.23 -10.43,57.55 -11.1,120.25 -21.24,176.48 45.95,46.01 -62.65,-47 29.21,14.31 76.04,50.73 -19.84,94.15 88.96,84.03 47.25,-14.98 21.96,3.46 42.35,-43.8l64.85 -383.8c12.78,-85.15 0.41,-78.35 82.1,-75.05l54.36 -192.54 -57.3 -0.98c-3.83,-4.79 -5.85,-11.45 -8.22,-16.47 -80,-168.97 -49.06,-31.24 -84.18,-143.76 -135.3,-2.3 -60.63,-23.73 -88.41,-53.95l-51.73 -106.94c-50.63,-0.87 -89.5,-35.61 -122.19,-71.51l-19.04 -26.12c-95.07,-111.08 -50.31,-80.31 -125.38,-81.59 9.17,-60.6 -11.83,-26.15 23.58,-47.19 -20.71,28.22 -149.43,686.34 -176.62,795.96z"/>
   <path class="fil3" d="M17414.51 11349.5l657.88 7.56c10.6,-52.73 85.73,-253.53 112.58,-308.88 41.95,-86.49 91.08,-230.6 122.46,-321.13l-695.98 5.59c-48.64,95.07 -142.2,467.26 -196.94,616.86z"/>
   <path class="fil3" d="M8035.65 11289.45l631.51 -5.87c-52.04,-156.28 -326.97,-481.86 -370.41,-621.94l-692.67 3.06 215.44 302.18c20.5,28.98 34.85,47.68 52.92,74.23 11.76,17.28 13.42,21.38 24.85,37.48 49.08,69.2 108.52,136.95 138.36,210.86z"/>
   <path class="fil3" d="M9639.16 11297.18l635.46 0.87c-19.5,-97.26 -96.01,-211.85 -132.79,-312.9 -37,-101.63 -114.49,-199.91 -135.32,-310.06l-689.33 3.4 246.2 460.37c32.86,58.07 54.88,101.54 75.78,158.32z"/>
   <path class="fil3" d="M24332.85 11399.77c173.63,1.97 327.03,-8.46 505.89,-1.84 118.18,4.37 208.71,-20.54 263.84,-99.08 37.8,-53.84 -13.89,-17.51 61.85,-65.64 89.13,-56.63 62.21,-63.87 122.16,-115.52 69.04,-59.47 76.46,-10.47 141.96,-111.45 27.65,-42.61 3.28,-23.42 54.25,-56.11 183.3,-117.56 51.32,-51.09 134.38,-119.68 31.17,-25.74 45.3,-19.83 75.72,-44.31 -72,-2.5 -656.43,-20.62 -701.53,10.2 -0.61,0.42 -25.37,23.82 -32.33,29.73l-106.79 84.03c-88.01,78.98 -209.88,236.2 -377.25,353.56 -53.31,37.38 -20.29,10.63 -63.37,62.78 -29.49,35.71 -40.53,41.69 -78.78,73.33z"/>
   <path class="fil3" d="M7389.55 11275.63c-24.69,-65.92 -68.3,-106.04 -111.05,-160.48 -70.2,-89.42 -24.85,-5.9 -116.52,-152.33 -27.47,-43.89 -23.32,-32.6 -57.64,-68.55l-169.12 -240.12 -687.2 2.55 388.48 471.56c153.96,151.76 31.45,149.36 306.87,143.25 145.4,-3.22 297.78,5.38 446.18,4.12z"/>
   <path class="fil3" d="M19011.16 10735.13l-284.92 621.31 512.24 -4.72c164.02,1.09 97.8,66.89 268.17,-255.89 30.1,-57.03 184.55,-336.88 191.34,-341.72l-686.83 -18.98z"/>
   <path class="fil3" d="M26435.46 10793.11l-533.08 414.78c-24.94,23.07 -8.87,20.32 -43.72,50.59l-199.73 143.26c163.23,3.17 343.65,1.21 512.41,4.2 162.51,2.88 106.66,21.03 224.24,-61.43l479.07 -376.01c3.47,-2.99 13.59,-11.39 17.2,-14.24l222.78 -160.33 -679.17 -0.82z"/>
   <path class="fil3" d="M20376.28 11360.49c192.81,14.28 427.11,4.59 623.03,9.47 22.5,-24.47 43.63,-45.94 62.81,-71.48l219.52 -304.05c21.67,-37 30.65,-55.38 54.68,-88.8l116.09 -149.94c-72.86,-4.86 -130.67,8.79 -204.82,9.19 -280.66,1.54 -454.2,-76.09 -541.2,82.34l-330.11 513.27z"/>
   <path class="fil3" d="M16128.85 11339.9l618.85 -3.42 156.49 -613.18 -679.16 3.89 -80.51 446.91c-5.16,29 -11.1,51.97 -15.02,83.72 0,0.02 -2.92,38.07 -2.95,40.09l2.3 41.99z"/>
   <path class="fil3" d="M5499.64 11265.57l609.39 -2.75c-50.13,-49.65 -92.36,-103.78 -132.04,-154.69 -64.37,-82.6 -89.1,-54.91 -149.71,-149.95 -40.2,-63.05 -61.83,-48.73 -130.94,-155.69 -44.39,-68.71 -6.72,-22.86 -73.32,-69.8 -58.35,-41.11 -26.97,-33.36 -81.14,-85.22 -96.42,-1 -245.05,-9.39 -333.17,-1.53 -97.43,8.68 -235.94,4.78 -317.67,15.26 20.51,-10.66 169.79,180.48 213.25,214.98 99.41,78.9 59.59,19.36 157.37,144.85 36.75,47.16 42.94,41.07 83.63,74.77 68.18,56.48 94.6,104.63 154.35,169.77z"/>
   <path class="fil7" d="M18881.63 9044.58c108.29,-2.06 92.7,6.75 108.95,82.12 25.41,1.27 30.65,-6 54.28,8.46 59.24,36.24 -17.21,-21.6 23.05,23.31l56.02 47.25c96.65,78.93 -30.49,70.63 102.05,78.53 47.9,-83.94 -79.02,-1073.48 -83.07,-1084.7 -4.54,-12.58 -26.98,-57.12 -37.87,-67.28 -36.83,-34.37 -0.62,1.55 -28.27,-17.28 -48.36,-32.93 9.83,12.12 -30.55,-25.38 -85.88,-79.76 -80.74,9.46 -94.27,-116.94l-99.49 2.42c-16.42,-48.16 -8.65,-38.37 -63.59,-49.89 -1.14,67.17 17.02,191.46 22.86,272.81 6.17,85.92 17.7,189.32 25.91,285.12 14.04,163.77 24.35,407.66 43.99,561.45z"/>
   <path class="fil3" d="M3874.46 11248.66c-28.32,-25.01 -20.44,-28.88 -50.71,-54.31l-137.47 -117.14c-54.35,-46.59 -94.15,-64.13 -130.14,-109.47 -44,-55.43 -13.16,-22.64 -65.26,-60.2 -39.37,-28.39 -9.93,-6.81 -33.93,-28.34 -2.41,-2.16 -5.5,-5.71 -7.95,-7.88l-157.3 -129.68c-75.28,-61.38 -26.12,-109.85 -272.35,-100.63 -160.47,6.01 -330.17,-1.36 -491.98,-4.11 11.66,-5.53 -40.12,-50.46 47.58,27.75l627.95 519.86c65.84,52.35 59.53,57.09 169.78,62.67 138.37,6.99 369.65,14.31 501.78,1.48z"/>
   <path class="fil3" d="M11548.21 8950.61l-4.41 70.24c13.36,2.49 55.6,6.84 67.06,11.64l80.54 62.75c40.98,43.88 27.71,-12.85 25.61,63.64 -31.54,25.09 -8.07,16.38 -57.34,22.75l-189.71 -15.11 0.41 -142.86c-65.89,2.88 -108.97,-30.71 -97.78,224.93l76.78 1.37c102.89,-52.56 532.88,3.51 684.88,2.78 225.98,-1.09 432.13,9.07 660.94,-12.03l5.13 -269.77c-386.25,-6.56 -886.16,-55.35 -1252.11,-20.33z"/>
   <path class="fil7" d="M7817.39 8994.11l75.14 37.14c2.21,4.18 8.61,18.9 11.22,22.83 1.75,2.63 4.1,6.44 5.98,8.76 1.75,2.17 5.03,5.22 6.91,7.13l108.58 93.66c26.79,41.42 -48.43,58.38 87.61,60.69l167.49 -958.42c12.58,-61.96 4.23,-102.97 12.12,-164.79l-56.76 -35.06c-39.42,-39.34 15.04,-13.63 -41.74,-47.99 -36.92,-22.34 -18.47,5.25 -36.32,-29.36 -46.5,-90.16 32.2,46.64 -10.15,-26.88 -19.05,-33.05 11.4,-25.97 -142,-25.68l-188.08 1057.97z"/>
   <path class="fil7" d="M16162.74 8455.05l62.7 1.45c56.65,88.74 -0.82,26.45 78.73,95.49 32.4,28.12 -2.87,0.49 25.16,32.93 62.31,72.14 -5.81,-15.31 95.96,57.5 2.07,1.48 5.49,4.66 7.65,6.15l39.29 22.86c3,2.31 7.06,4.86 9.87,7.44l109.41 113.85c43.07,45.22 30.68,12.51 75.32,60.93 40.96,44.43 -43.18,42.62 100.43,44.05 1.68,-182.51 -16.03,-340.06 -25.79,-510.16l-11.84 -64.6c-49.93,-0.5 -31.47,7.94 -60.56,-14.03l-38.9 -46.79c-55.73,-46.05 -53.64,11.74 -60.06,-91.49 -178.24,9.07 10.28,-33.84 -164.34,-55.72 -9.02,-141.25 -22.23,-62.61 -44.21,-77.08 -64.09,-42.19 -15.68,46.59 -57.36,-61.59 -132.83,-24.41 -41.28,13.2 -101.19,-67.39l-51.58 -3.62 11.31 549.82z"/>
   <path class="fil8" d="M25361.93 9022.64c18.41,61.15 3.78,52.18 99.93,68.31 16.09,22.98 23.42,41.26 34.85,66.89 1.69,3.79 3.46,8.1 5.02,11.8l18.44 49.31c26.28,0.69 132.83,11.38 151.81,20.4 3.67,1.74 46.71,-20.76 28.61,44.87 -10.42,37.8 -2.96,21 -44.31,36.48 117.86,14.21 123.21,-8.97 232.47,-11.02l191.29 -1.83c144.33,18.2 66.24,221.81 150.17,373.34l81.48 2.29 33.83 88.64c194.49,5.88 -13.34,81.86 187.76,85.52 3.12,-96.61 -74.56,-312.93 -104.33,-458.73 -12.66,-61.95 -24,-140.01 -80.17,-163.64 -166.41,-70.01 7.21,-68.06 -168.11,-71.2l-22.06 -71.64c-151.93,-1.35 -81.26,6.79 -114.49,-106.62 -33.72,43.18 40.88,21.34 -70.67,40.8l-611.52 -3.97z"/>
   <path class="fil9" d="M21746.38 8837.5l89.17 1.52c6.48,31.23 1.4,60.95 28.12,79.83 78.87,55.73 52.11,-13.99 56.22,-27.53l-169.38 -1028.19c138.39,-28.04 323.01,-19.97 467,-17.14l429.91 21.94c90.77,-4.85 79.42,3.25 93.93,-46.13 -25.39,-42.78 3.15,-17.23 -48.07,-34.56 -22,-7.45 -47.98,-3.92 -69.09,-3.53l-7.93 -60.8 -1057.4 -6.31 187.52 1120.9z"/>
   <path class="fil7" d="M20523.46 8683.58c-2.71,-133.67 -5.6,-34.55 30.87,-72.59 116.18,12.23 27.88,-20.18 77.8,85.67 81.46,17.97 40.58,10.93 85.6,49.34 2.47,2.09 5.71,5.4 8.34,7.33 103.76,76.03 22.11,-25.77 94.05,89.17l74.78 -1.94c-7.36,-116.25 -58.83,-231.7 -22.17,-292.6 85.66,4.98 65.32,35.04 78.93,130.05l42.98 261.1c29.64,82.02 18.44,33.78 58.15,59.77l40.84 40.36c12.54,11.22 -14.9,22.08 93.49,22.96 -17.25,-175.8 -32.93,-347.95 -75.57,-504.86 -20.79,-119.47 -16.73,-54.98 -72.53,-86.57 -57.77,-32.71 12.64,14.57 -26.48,-19.79l-58.79 -41.46c-31.2,-13.89 5.8,9.01 -35.53,-14.45l-48.52 -35.37c-58,-35.8 -37.61,4.55 -62.55,-89.98 -49.28,-7.26 -41.92,2.2 -73.33,-20.53l-40.51 -38.16c-93.58,-58.73 -28.84,46.94 -72.86,-89.02 -192.25,-25.75 13.73,-54.89 -166.6,-58.24 22.48,59.63 33.96,221.02 46.42,297.47 8.17,50.17 18.9,107.48 18.81,150.96 -0.12,62.58 -16.98,94.77 4.38,171.38z"/>
   <path class="fil3" d="M20453.85 8063.77c180.33,3.35 -25.65,32.49 166.6,58.24 44.02,135.96 -20.72,30.29 72.86,89.02l40.51 38.16c31.41,22.73 24.05,13.27 73.33,20.53 24.94,94.53 4.55,54.18 62.55,89.98l48.52 35.37c41.33,23.46 4.33,0.56 35.53,14.45l58.79 41.46c39.12,34.36 -31.29,-12.92 26.48,19.79 55.8,31.59 51.74,-32.9 72.53,86.57l63.1 -4.43 -58.67 -413.81c-0.72,-4.26 -1.55,-8.35 -2.32,-12.54 -6.51,-35.35 -11.29,-56.76 -17.01,-92.66l-21.9 -170.29 -156.22 -9.49 -502.5 -7.77 37.82 217.42z"/>
   <path class="fil5" d="M6579.05 7746.86l57.9 -27.45 102.05 117.24c-35.41,21.04 -14.41,-13.41 -23.58,47.19 75.07,1.28 30.31,-29.49 125.38,81.59l19.04 26.12c32.69,35.9 71.56,70.64 122.19,71.51l51.73 106.94c27.78,30.22 -46.89,51.65 88.41,53.95 35.12,112.52 4.18,-25.21 84.18,143.76 2.37,5.02 4.39,11.68 8.22,16.47l57.3 0.98 64.87 -376.16c0.46,-13.25 -0.2,-60.84 0.55,-71.11 0.35,-4.69 0.51,-9.04 1.04,-13.49 0.5,-4.21 1.18,-8.79 1.85,-12.66l11.04 -96.43 -237.98 -4.04c7.48,-49.94 15.07,-110.27 34.36,-150.35 -69.8,17.91 -233.59,4.51 -317.47,3.93 -50.67,-0.36 -111.06,-3.93 -160.41,-2.1 -95.82,3.55 -63.98,7.29 -90.67,84.11z"/>
   <path class="fil3" d="M11799.78 7843.38c18.42,121.86 -2.57,23.11 58.71,65.07l71.6 50.13c3.22,2.25 7.41,4.26 10.53,6.69l49.11 53.9c39.6,36.31 30.35,7.83 49.51,66.35 59.97,1.86 56.23,9.56 99.77,16 51.67,7.64 47.13,2.91 96.57,1.5l630.55 7.05 -13.12 -264.75c-97.16,-4.1 -152.5,-9.95 -250.21,-22.59l-745.73 -9.35c-77.18,14.71 -15.82,1.05 -57.29,30z"/>
   <path class="fil1" d="M4473.33 9781.61l-41.22 172.41c51.44,58.79 200.18,243.07 276.16,262.99 36.48,-96.65 71.86,-312.03 100.9,-427.99 35.51,-141.81 86.9,-302.2 105.72,-434.43l-255.31 -2.4 -80.74 1.78 -105.51 427.64z"/>
   <path class="fil7" d="M25660.07 7875.04c24.26,80.31 10.82,59.51 108.27,54.71 4.05,107.64 5.59,28.66 105.08,114.23l16.96 15.71c69.24,49.62 62.83,-7.8 82.06,103.74 102.63,1.74 34.65,-7.6 194.95,57.57 17.72,48.92 9.22,50.35 46.01,72.32l67.62 39.17c22.13,19.02 -0.84,7.39 27.98,23.75 46.74,26.52 14.79,1.34 49.74,16.85 37.77,16.75 16.03,-10.64 45.19,59.73 13.46,0.8 45.89,1.67 56.72,5.07 72.97,22.87 -7.37,21.86 124.45,70.6 -33.51,-105.57 -56.76,-206.79 -90.51,-307.57 -33.25,-99.31 -61.25,-214.56 -87.52,-312.15 -105.74,-16.07 -252.04,-7.94 -366.42,-9.76l-380.58 -3.97z"/>
   <path class="fil7" d="M17370.9 7854.13l1.45 30.73c5.8,2.36 12.7,-0.87 14.69,4.56 13.01,35.45 -3.82,-23.49 55.18,30.98 30.33,28 -0.66,18.72 60.99,58.76 3.01,1.96 7.72,3.41 10.63,5.34 2.76,1.82 7.2,3.71 9.76,5.62l33.93 39.61c0,0 6.51,27.09 55.31,17.83l10.77 78.76c29.87,8.49 50.16,-6.26 90.63,19.82 33.75,21.75 -44.37,28.36 85.75,30.9l2.1 69.79 72.8 36.97c24.05,20.3 -3.4,2.72 21.84,25.16 54.66,48.61 22.67,-4.04 90.55,64.86l69.85 47.77c68.16,51.72 -19.45,16.18 90.73,48.85 11.86,-63.55 -32.51,-517.92 -46.08,-622.6l-730.88 6.29z"/>
   <path class="fil10" d="M17344.42 8828.29l-338.6 0.43 -9.1 -252.35 -66.77 -57.11c-29.04,-35.93 -68.68,-134.45 -113.11,-20.52 -13.63,34.93 9.93,162.99 11.63,207.49 3.89,102.09 3.6,180.06 14.62,279.02l683.79 -7.13 -64.07 -857.31 -241.34 -4.62c-58.75,25.8 -65.1,-3.47 -85.23,39.98 35.75,41.21 178.61,31.46 254.77,33.4l31.08 530.23c1.37,22.76 5.23,72.12 4.99,92.26l-19.15 84.76c-76.57,-6.34 -50.55,13.58 -63.51,-68.53z"/>
   <path class="fil3" d="M22811.18 7871.8c29.22,98.46 -11.31,25.46 53.54,56.11 26.3,12.43 5.49,-4.98 35.56,11.94l87.75 63.14c32.35,18.87 24.02,-35.66 37.05,71.45 61.05,0.96 67.89,-6.21 97.22,32.83 1.51,2.01 4.24,7.68 5.37,9.4 1.16,1.77 2.69,7.08 5.24,9.75l671.22 23.67c-6.88,-79.14 -38.38,-212.13 -79.75,-278.72 -81.31,-1.59 -117.9,-15.33 -212.32,-12.56l-687.39 7.66c-3.67,1.11 -9.24,3.03 -13.49,5.33z"/>
   <path class="fil3" d="M14575.45 7820.92l3.72 70.14c101.9,13.97 55.65,13.9 106.25,54.29 2.29,1.83 6.16,4.12 8.57,5.91 2.58,1.91 6.96,3.58 9.65,5.54 125.63,91.72 -20.8,79.12 124.17,83.83l-0.05 57.98c50.55,-6.05 245.05,15.18 324.56,16.42 112.27,1.75 227.08,5.49 338.83,5.3l-11.58 -278.29 -904.12 -21.12z"/>
   <path class="fil7" d="M24761.43 8619c38.32,56.45 -5.45,0.66 45.9,31.63l31.15 17.97c59.93,44.35 -30.78,31.46 111.4,38.36l18.58 85.45c85.63,9.32 44.2,-0.13 95.73,45.18 55.38,48.7 32.98,0.11 88.46,56.27 54.85,55.53 -43.94,40.84 76.66,46.66 54.98,-70.22 -6.73,-157.51 -35.63,-328.54 -6.53,-38.67 -18.39,-72.5 -31.56,-110.48 -66.88,-192.81 -46.27,-100.68 -147.03,-192.94l-42.89 -28.19c-51.43,-25.5 -34.89,29.66 -56.91,-79.02 -1.41,0.06 -49.99,1.79 -52.15,1.44 -47.51,-7.63 -22.69,-4.48 -35.1,-11.53 -46.09,-26.16 61.93,-30.21 -116.04,-47.56 18.09,127.92 72.56,356.7 110.31,476.31l-60.88 -1.01z"/>
   <path class="fil1" d="M25497.69 8865.81l342.14 -1.19 -150.77 -584.61 -341.37 -4.74c-1.98,71.11 115.66,509.16 150,590.54z"/>
   <polygon class="fil1" points="16996.72,8576.37 17005.82,8828.72 17344.42,8828.29 17309.44,8254.6 16977.98,8253.32 "/>
   <path class="fil9" d="M8410.02 9540.06l-1.88 48.41 59.38 -4.51c21.87,-189.42 69.72,-370.57 96.94,-560.3 124.63,-23.06 356.43,-15.88 484.45,1.05l-65.83 505.62 84.66 -8.73 78.29 -545.27c-20.99,-68.91 47.26,38.97 -27.68,-32.27 -3.26,-3.11 -16.27,-12.44 -19.55,-15.81 -21.97,-22.54 -21.17,-0.61 -22.65,-58.67 -7.23,0.59 -42.63,2.26 -47.23,0.68 -45.21,-15.47 -16.05,-3.43 -45.03,-27.54l13.04 -46.64 -59.93 3.22c-27.4,-88.8 37.51,-81.21 -80.56,-85.64l-40.91 217.63 -330.59 -5.48c-22.67,118 -82.74,509 -74.92,614.25z"/>
   <path class="fil3" d="M5992.45 8298.91c18.11,-152.6 102.1,-361.52 73.68,-491.97 -192.65,-13.31 -353.98,-10.1 -546.9,-8.4l-11.14 49 114.47 77.01c17.95,19.52 12.72,12.96 27.47,38.63l86.47 92.87c1.34,0.55 52.45,12.52 57.79,13.84 -11.98,143.98 -4.94,-12.81 57.73,116.88 22.26,46.06 -21.19,-14.35 13.76,20.93l41.48 48.24c38.15,75.97 -45.37,40.9 85.19,42.97z"/>
   <path class="fil3" d="M3355.12 7788.1l-11.47 54.42 97.92 17.83c-14.99,68.13 -25.22,44.36 50.58,55.99l-6.31 93.63c52.12,1.43 66.28,26.32 96.73,56.73l68.16 84.16c2.06,2.8 5.08,6.14 7.01,9.18 2.08,3.28 4.47,7.28 6.34,10.74l15.22 40.66 66.46 -8.14c19.81,-114.13 100.43,-307.57 106.63,-418.93l-497.27 3.73z"/>
  </g>
 </g>
</svg>
